<?xml version="1.0" encoding="UTF-8"?><svg id="a" xmlns="http://www.w3.org/2000/svg" viewBox="0 0 215.11 249.29"><defs><style>.b{fill:#231f20;}</style></defs><path class="b" d="M75.13,129.85l-25.89-1.63-6.47-.41-2.99-.19c-.76-.05-1.74-.28-2.48-.19,.41-.05,.15,.59,.19-.06,.01-.21-.02-.45-.02-.68,0-1.01,.11-2.03,.14-3.04,.08-2.05,.09-4.11,.06-6.16-.29-16.52-3.89-32.73-6.35-49-.61-4.02-1.14-8.05-1.53-12.1-.1-1.03-.19-2.05-.27-3.08,0-.13-.03-1.35-.09-1.37,.02,0-.42,.42-.42,.43-.07,.33-.31-.07,.04,.11,.21,.12,.84,.05,1.1,.08,.57,.06,1.15,.13,1.72,.19,1.06,.12,2.13,.23,3.19,.33,8.51,.86,17.05,1.47,25.59,1.91,17.02,.88,34.06,1.09,51.1,1.28,8.57,.09,17.13,.18,25.7,.34,2.14,.04,4.28,.08,6.42,.13,1.07,.03,2.14,.05,3.21,.08,.39,.01,1.05,.16,1.42,.04-.15,.05,.25,0,.25,0,.02-.03-.17-.52-.27-.48,.07-.02-.1,1.95-.12,2.1l-.38,3.18-.77,6.35-.77,6.35c-.16,1.34,1.27,2.5,2.5,2.5,1.49,0,2.34-1.15,2.5-2.5l1.65-13.68c.23-1.88,.74-3.93,.14-5.78-.75-2.34-2.96-2.99-5.18-3.05-9.14-.28-18.28-.38-27.42-.48-18.19-.21-36.4-.32-54.58-1.12-9.12-.4-18.23-.97-27.32-1.81-2.29-.21-4.59-.44-6.88-.69-2.02-.22-4.33-.69-6.01,.79-1.78,1.56-1.42,3.84-1.24,5.95s.42,4.43,.69,6.63c2.11,17.49,6.36,34.72,7.23,52.35,.21,4.31,.1,8.58-.05,12.89-.07,1.94,.35,4.02,2.04,5.2s4.21,1,6.25,1.13l27.38,1.72,6.97,.44c3.21,.2,3.2-4.8,0-5h0Z"/><path class="b" d="M92.18,158.88l2.51-44.78,.61-10.95c.05-.88-.23-2.86,.41-3.5,.34-.34,1.3-.39,1.77-.49,1-.2,2.01-.27,3.02-.33,7.28-.43,14.57-.67,21.85-1l44.92-2.04c7.24-.33,14.78-1.22,21.99-.16,.44,.06,1.34,.06,1.65,.38-.3-.3-.07,.45-.06,.69,.04,1.82-.32,3.72-.47,5.53-.31,3.61-.58,7.22-.81,10.83-.52,8.21-.82,16.44-.9,24.66-.04,4.2-.03,8.39,.04,12.59,.03,2.06,.08,4.11,.15,6.17,.03,.99,.06,1.97,.1,2.96,.02,.49,.04,.99,.06,1.48,.01,.33,.03,.66,.04,.99-.01,.45,0,.46,.05,.04l.9-.9,.27,.02c-.29,0-.58,0-.87,0-.33,0-.67-.01-1-.02l-2.49-.04-4.99-.08-9.48-.14-19.46-.3-38.92-.59-21.95-.33c-3.22-.05-3.22,4.95,0,5l67.6,1.03,16.71,.25,8.48,.13,3.99,.06c1.4,.02,3.07,.26,4.34-.47,2.6-1.49,1.74-5.14,1.66-7.61-.09-2.8-.16-5.59-.21-8.39-.09-5.51-.07-11.03,.04-16.54,.22-11.1,.85-22.2,1.86-33.26,.22-2.43,.71-5.23-1.11-7.21s-5.02-1.98-7.47-2.17c-5.56-.44-11.18,.02-16.74,.27l-67.37,3.06c-2.69,.12-5.5,.15-8.09,.96-2.79,.87-4.1,2.75-4.35,5.6-.49,5.58-.63,11.21-.94,16.8l-1.87,33.34-.47,8.46c-.18,3.21,4.82,3.2,5,0h0Z"/><path class="b" d="M89.96,170.51c6.85,4.65,13.56,9.49,20.11,14.56,3.21,2.48,6.28,5.2,9.57,7.57s7.47,2.27,11.49,2.32l52.03,.67,29.38,.38c1.72,.02,3.35-2.22,2.16-3.76l-18.85-24.41c-.82-1.07-2.15-1.64-3.42-.9-1.05,.61-1.73,2.35-.9,3.42l18.85,24.41,2.16-3.76-51.29-.66-25.64-.33-6.47-.08c-1.7-.02-3.54,.09-5.16-.54s-2.97-1.99-4.3-3.06c-1.6-1.29-3.21-2.57-4.83-3.83-7.27-5.68-14.73-11.13-22.37-16.31-2.67-1.81-5.17,2.52-2.52,4.32h0Z"/><path class="b" d="M28.3,34.71c-1.94-3.01-3.37-6.25-4.23-9.73-.79-3.17-1.38-6.93-.73-10.17s3.87-4.55,6.7-5.55c3.03-1.07,6.74-1.93,9.81-.5,2.48,1.16,4.44,3.9,3.51,6.65h4.82c-.38-1.29,.56-2.43,1.4-3.33,1.15-1.23,2.5-2.31,3.85-3.32,2.55-1.92,5.73-3.94,9.09-3.42,2.58,.4,4.72,2.32,6.07,4.46,1.79,2.86,2.27,6.06,2,9.38-.38,4.53-2.17,8.89-3.81,13.08-.49,1.26,.54,2.74,1.75,3.08,1.42,.39,2.58-.48,3.08-1.75,3.29-8.39,6.57-18.35,1.12-26.61-2.19-3.32-5.5-5.98-9.52-6.55-4.53-.64-8.73,1.35-12.28,4.01-3.78,2.83-9.14,6.87-7.55,12.3,.72,2.44,4.04,2.31,4.82,0,1.3-3.85-.41-8.08-3.4-10.65-3.59-3.08-8.35-3.5-12.84-2.57-2.28,.47-4.48,1.31-6.59,2.28-1.88,.86-3.66,2.01-4.95,3.64-2.93,3.7-2.46,9.06-1.82,13.44,.74,5.09,2.62,10.02,5.41,14.35,1.74,2.7,6.07,.19,4.32-2.52h0Z"/><path class="b" d="M27.17,38.79c2.91,3.21,8.23,3.3,11.69,.94,3.88-2.64,5.44-7.4,5.46-11.93,0-1.31-1.15-2.56-2.5-2.5s-2.49,1.1-2.5,2.5c0,.46-.02,.93-.06,1.39-.02,.19-.01,.41-.06,.6,.16-.61,0,.01-.03,.13-.15,.86-.38,1.68-.67,2.5-.21,.62,.23-.46-.05,.13-.08,.18-.17,.36-.26,.53-.21,.41-.46,.78-.71,1.17-.28,.43,.29-.31-.09,.11-.13,.15-.26,.29-.39,.44s-.28,.28-.42,.41c-.09,.08-.18,.16-.28,.24,.26-.2,.31-.24,.16-.13-.32,.2-.62,.41-.96,.58l-.16,.08c-.25,.11-.21,.1,.12-.05-.12,0-.37,.14-.49,.17-.36,.11-.72,.19-1.09,.26-.19,.03-.11,.02,.24-.03-.11,.01-.23,.02-.34,.03-.17,.01-.34,.01-.51,.01s-.34-.02-.51-.02c-.54-.02,.48,.11,0,0-.12-.03-1.1-.18-1.12-.32,.02,.08,.51,.25,0-.03-.15-.08-.28-.17-.43-.26-.45-.25,.32,.32-.02-.01-.16-.16-.33-.31-.48-.48-.88-.97-2.65-.96-3.54,0-.95,1.04-.94,2.5,0,3.54h0Z"/><path class="b" d="M39.48,31.96c.22,1.44,1.38,2.74,2.65,3.37,1.46,.73,3,.87,4.59,.57,2.48-.47,4.78-2.44,5.79-4.73,.73-1.65,.95-3.27,.65-5.05-.1-.58-.66-1.21-1.15-1.49-.54-.31-1.33-.45-1.93-.25-1.4,.45-1.98,1.69-1.75,3.08,.01,.08,.03,.16,.04,.24l-.09-.66c.05,.44,.05,.88,0,1.32l.09-.66c-.04,.32-.11,.63-.2,.94-.04,.14-.09,.27-.14,.4-.07,.18-.03,.08,.14-.32-.03,.07-.07,.15-.1,.22-.14,.29-.32,.56-.5,.84-.23,.36,.4-.46,.1-.12-.11,.12-.21,.25-.32,.36-.2,.21-.41,.39-.63,.57,.61-.53,.19-.15,.02-.04-.14,.09-.27,.17-.42,.25-.1,.06-.22,.1-.32,.16,.41-.17,.5-.21,.26-.11-.08,.03-.15,.06-.23,.08-.31,.1-.62,.17-.94,.21l.66-.09c-.4,.05-.79,.05-1.18,0l.66,.09c-.28-.04-.54-.12-.81-.2-.4-.12,.61,.31,.06,.01-.12-.06-.22-.15-.34-.21-.16-.11-.06-.04,.28,.22-.06-.05-.11-.1-.16-.15-.05-.05-.1-.11-.15-.16,.26,.35,.34,.45,.23,.29-.03-.05-.06-.09-.08-.14-.11-.23-.07-.13,.12,.3-.02-.14-.08-.29-.1-.44-.09-.58-.67-1.21-1.15-1.49-.54-.31-1.33-.45-1.93-.25s-1.19,.57-1.49,1.15c-.33,.63-.36,1.22-.25,1.93h0Z"/><path class="b" d="M50.17,20.88c-1.75,2.45-2.97,5.35-3.44,8.32s-.7,6.74,1.74,9.1c4.17,4.03,10.86,2.03,14.79-1.21,2.31-1.9,3.99-4.6,4.75-7.49,.33-1.26-.42-2.77-1.75-3.08s-2.72,.39-3.08,1.75c-.12,.46-.27,.91-.44,1.36,.14-.37-.07,.16-.13,.27-.12,.25-.25,.49-.39,.73-.24,.41-.5,.81-.78,1.19-.17,.23,0,0,.03-.04-.1,.12-.2,.24-.31,.36-.18,.21-.37,.41-.57,.61-.17,.17-.34,.33-.52,.49-.09,.08-.18,.16-.27,.23,0,0-.31,.26-.12,.1s-.11,.08-.13,.09c-.1,.07-.19,.14-.29,.2-.23,.16-.46,.3-.7,.44-.41,.24-.83,.46-1.27,.65,.36-.16-.17,.05-.29,.09-.26,.09-.53,.17-.79,.24-.23,.06-.45,.11-.68,.16-.11,.02-.21,.04-.32,.06,.05,0,.4-.01,.12-.02-.48-.01-.96,.02-1.44,.01-.11,0-.48-.08,0,.01-.11-.02-.22-.03-.32-.06-.21-.05-.42-.1-.63-.16-.1-.03-.2-.07-.3-.1,.03,.01,.36,.18,.11,.05-.22-.11-.42-.23-.64-.35-.37-.21,.13,.2-.13-.12-.12-.15-.36-.47-.14-.12-.11-.17-.24-.35-.31-.55,.08,.22-.11-.57-.09-.43-.05-.3-.05-1.05-.04-1.52,0-.29,.02-.57,.05-.86,.01-.14,.02-.28,.04-.43,0-.05,.06-.44,.02-.19,.4-2.78,1.35-5.01,2.96-7.26,.79-1.1,.19-2.78-.9-3.42-1.26-.73-2.63-.21-3.42,.9h0Z"/><path class="b" d="M76.17,11.06c4.03-2.76,9.86-6.76,14.87-3.94,.73,.41,1.64,1.01,1.7,1.92,.08,1.17-.81,2.15-1.61,2.87-2.23,2.03-5.16,3.51-7.84,4.85-2.18,1.1-1.19,4.82,1.26,4.66s4.74-.72,7.07-.44c1.32,.16,3.05,.69,3.55,2.08,.59,1.64-.81,2.04-2.14,2.39-2.35,.62-4.74,.73-7.15,.48-2.84-.29-3.33,4.21-.66,4.91,1.37,.36,2.65,.93,3.78,1.8,.88,.68,2.39,1.99,2.44,3.22,.04,.83-.9,1.05-1.59,1.24-1.55,.44-3.19,.67-4.8,.8-5.57,.43-12.55-1.23-14.28-7.34-.88-3.09-5.7-1.78-4.82,1.33,1.13,4,4.12,7.27,7.83,9.08,4.44,2.17,9.38,2.3,14.19,1.58,2.02-.3,4.23-.65,5.94-1.85,2.02-1.42,2.93-3.77,2.35-6.18-1.05-4.35-5.63-7.43-9.71-8.51l-.66,4.91c5.57,.57,15.74-.66,14.28-8.52-.55-2.96-2.99-5.04-5.76-5.92-3.23-1.03-6.57-.29-9.85-.08l1.26,4.66c3.37-1.69,7.34-3.7,9.81-6.63,2.76-3.28,2.85-7.85-.62-10.65-3.02-2.42-6.95-2.94-10.68-2.27-3.94,.71-7.43,2.99-10.67,5.21-1.11,.76-1.61,2.2-.9,3.42,.65,1.1,2.3,1.66,3.42,.9h0Z"/><path class="b" d="M95.72,9.47c1.5-1.21,3.31-2,5.19-2.41,1.39-.3,3.63-.63,4.92,.2,.69,.45,1.11,1.4,1.48,2.11,.5,.94,.89,1.92,1.19,2.94,.59,1.99,.79,3.99,.69,6.06-.06,1.23,1,2.32,2.17,2.46,1.31,.16,2.28-.6,2.74-1.79,1.3-3.34,3.32-6.41,5.85-8.94,.5-.5,1.14-1.32,1.82-1.59,.02,0,.17-.13,.12-.13,0,0,.16,.18,.24,.31,.86,1.38,.74,3.52,.7,5.07-.12,4.3-1.45,8.47-2.74,12.54-.67,2.12-1.35,4.23-2.02,6.34-.37,1.16-.72,3.54-1.89,4.22-.02,0-.43,.1-.47,.14-.59,.49-.07-.08-.12-.01,.05-.07,.36,.25,.28,.3-.04,.03-.09-.3-.1-.44-.03-.41,.02-.83,.06-1.24,.17-2.06,.08-3.81-1.31-5.47-.87-1.04-2.64-.9-3.54,0-1.03,1.03-.87,2.5,0,3.54-.2-.24-.05,.16-.05,.22,.02,.47-.04,.94-.07,1.4-.09,1.03-.15,2.08,.11,3.1,.66,2.5,3.05,3.89,5.55,3.53,2.66-.39,4.33-2.42,5.29-4.78,1.01-2.49,1.7-5.13,2.52-7.69,1.72-5.38,3.57-10.9,3.5-16.61-.03-2.36-.25-5.06-1.65-7.06-1.64-2.35-4.5-2.97-6.99-1.53s-4.35,3.9-5.97,6.09-2.94,4.77-3.95,7.39l4.91,.66c.14-2.83-.24-5.73-1.2-8.4s-2.28-5.65-4.77-7.08-5.58-1.23-8.23-.73c-2.91,.55-5.52,1.94-7.8,3.78-1.05,.85-.88,2.65,0,3.54,1.04,1.04,2.48,.85,3.54,0h0Z"/><path class="b" d="M102.54,30.95c.02,.26,.04,.52,.02,.78,0,.11-.01,.22-.03,.33,0-.05,.08-.38,0-.11-.15,.5-.25,1.04-.37,1.55-.24,.98-.43,2.01-.33,3.02,.13,1.25,.49,2.34,1.31,3.32s2.03,1.46,3.25,1.55c2.18,.16,4.25-1.34,5.55-2.95,1.37-1.69,2.4-3.51,3.16-5.55s1.15-4.44,1.1-6.7c-.04-1.5-1.59-3-3.16-2.41-2.17,.81-3.89,2.49-4.45,4.79-.31,1.27,.4,2.77,1.75,3.08s2.74-.39,3.08-1.75c.03-.14,.09-.28,.12-.43,.06-.27-.25,.41,0,.03,.08-.12,.16-.25,.22-.38,.13-.27-.39,.4-.01,.01,.08-.09,.16-.17,.25-.25,.07-.07,.44-.29,.15-.14-.33,.17,.12-.06,.19-.1,.14-.08,.65-.26,.05-.04l-3.16-2.41c.01,.55,0,1.1-.04,1.64-.01,.2,0,.42-.06,.61,.17-.63-.04,.22-.06,.35-.17,.94-.43,1.87-.76,2.77-.05,.13-.1,.26-.15,.38,.12-.28,.13-.29,.01-.03-.09,.19-.17,.37-.26,.56-.24,.49-.51,.97-.8,1.43-.11,.17-.22,.35-.34,.52-.06,.09-.58,.8-.22,.32-.28,.36-.58,.71-.91,1.02-.06,.06-.62,.48-.34,.3s-.33,.18-.38,.22c-.25,.12-.22,.12,.1-.02-.11,.04-.22,.08-.34,.11-.22,.05-.23,.06,0,.02,.22-.02,.22-.02,0,0-.28-.01-.23,0,.16,.04-.26-.08-.22-.05,.11,.08-.1-.05-.2-.11-.29-.18,.27,.22,.34,.26,.21,.13-.13-.14-.08-.07,.15,.21-.06-.09-.11-.18-.16-.27,.14,.36,.16,.41,.07,.16-.03-.1-.06-.21-.08-.31-.15-.5,0,.54,0,0,0-.22,0-.45,0-.67,0-.49-.11,.55,.02-.1,.05-.26,.11-.52,.18-.78,.31-1.23,.65-2.49,.53-3.77s-1.06-2.56-2.5-2.5c-1.25,.06-2.63,1.11-2.5,2.5h0Z"/><path class="b" d="M106.02,33.8c-1.55-.42-2.97,0-4.38,.62-.24,.1-.47,.21-.71,.32-.11,.05-.22,.09-.32,.14,.63-.33,.26-.11,.08-.04-.23,.08-.48,.12-.71,.21-.27,.11,.63-.02,.22-.03-.1,0-.29-.03-.38,0,.14-.03,.63,.13,.22,0-.25-.08,.48,.24,.1,.02-.45-.25,.33,.33-.01,0-.12-.12-.24-.23-.35-.35-.2-.21-.39-.44-.58-.66-.4-.46,.31,.44-.05-.06-.1-.15-.21-.29-.31-.44-.35-.52-.67-1.06-.95-1.62-.07-.13-.13-.27-.19-.4-.05-.11-.1-.22-.15-.33l.11,.27c.01-.08-.16-.42-.19-.5-.06-.17-.12-.34-.17-.51-.4-1.24-1.75-2.17-3.08-1.75-1.24,.4-2.18,1.74-1.75,3.08,.48,1.5,1.15,2.97,2.04,4.28,1.02,1.5,2.22,3.05,3.97,3.7,1.59,.59,3.17,.09,4.64-.55,.26-.11,.52-.23,.78-.35,.4-.18-.43,.16-.14,.06,.13-.05,.26-.1,.39-.15s.26-.08,.39-.12c.1-.03,.6-.12,.12-.04s.03,.04,.12,.02c.2,0,.09,0-.34-.06,.09,.02,.17,.04,.26,.06,1.26,.34,2.77-.42,3.08-1.75s-.39-2.71-1.75-3.08h0Z"/><path class="b" d="M130.17,14.82c2.99-1.28,6.26-2.13,9.5-2.46,.81-.08,1.62-.14,2.43-.17,.37-.01,.81-.08,1.18,0,.48,.09,.02-.02,0-.05,.43,.47,.67,1.32,.89,1.91,.31,.81,.57,1.63,.8,2.46,.85,3.12,1.1,6.45,.64,9.66-.09,.61-.18,1.31-.45,1.86-.18,.36-.44,.58-.75,.76-.88,.54-2.06,.71-3.14,.76-3.96,.2-8.04-.22-11.95-.85-1.33-.21-2.69,.34-3.08,1.75-.33,1.19,.41,2.86,1.75,3.08,4.39,.71,8.98,1.29,13.43,1.02,3.89-.23,7.74-1.77,8.79-5.91,1.03-4.06,.74-8.65-.23-12.68-.49-2.05-1.18-4.22-2.22-6.06-1.23-2.18-3.28-2.78-5.66-2.7-5.02,.17-9.85,1.35-14.45,3.31-1.24,.53-1.52,2.36-.9,3.42,.75,1.28,2.17,1.43,3.42,.9h0Z"/><path class="b" d="M132.66,22.96l2.07,1.07c.29,.18,.6,.28,.93,.3,.33,.07,.66,.06,1-.04,.33-.08,.61-.23,.85-.45,.27-.18,.49-.41,.64-.7l.25-.6c.12-.44,.12-.89,0-1.33l-.25-.6c-.22-.38-.52-.67-.9-.9l-2.07-1.07c-.29-.18-.6-.28-.93-.3-.33-.07-.66-.06-1,.04-.33,.08-.61,.23-.85,.45-.27,.18-.49,.41-.64,.7l-.25,.6c-.12,.44-.12,.89,0,1.33l.25,.6c.22,.38,.52,.67,.9,.9h0Z"/><path class="b" d="M126.93,24.97h-.35c-.34-.01-.67,.06-.96,.22-.31,.1-.58,.27-.8,.52-.24,.23-.42,.49-.52,.8-.16,.3-.23,.62-.22,.96l.09,.66c.12,.42,.33,.79,.64,1.1l.51,.39c.39,.23,.81,.34,1.26,.34h.35c.34,.01,.67-.06,.96-.22,.31-.1,.58-.27,.8-.52,.24-.23,.42-.49,.52-.8,.16-.3,.23-.62,.22-.96l-.09-.66c-.12-.42-.33-.79-.64-1.1l-.51-.39c-.39-.23-.81-.34-1.26-.34h0Z"/><path class="b" d="M123.93,28.61c.29,.48,.64,.94,1.01,1.37,.24,.28,.5,.54,.79,.78,.43,.36,.88,.71,1.37,1s1.02,.51,1.55,.71c.33,.1,.66,.12,1,.04,.33-.02,.64-.11,.93-.3,.29-.16,.53-.37,.7-.64,.22-.24,.37-.52,.45-.85,.15-.64,.11-1.36-.25-1.93l-.39-.51c-.31-.31-.68-.52-1.1-.64-.06-.02-.12-.05-.19-.08l.6,.25c-.51-.22-.99-.5-1.43-.84l.51,.39c-.44-.34-.83-.73-1.17-1.17l.39,.51c-.15-.2-.3-.41-.43-.62-.33-.54-.88-.98-1.49-1.15-.33-.1-.66-.12-1-.04-.33,.02-.64,.11-.93,.3-.53,.34-1,.86-1.15,1.49s-.1,1.34,.25,1.93h0Z"/><path class="b" d="M146.85,12.28c4.53-3.52,10.45-5.98,16.15-4.04,2.15,.73,4.6,2.37,5.36,4.61-.11-.33,.21-.25-.1-.23-.18,0-.61,.42-.77,.52-.72,.44-1.45,.87-2.19,1.27-1.62,.89-3.27,1.7-4.96,2.45-1,.44-1.42,1.85-1.15,2.82,.3,1.1,1.31,1.77,2.41,1.84,2.61,.15,4.12,3.78,5.07,5.83,1.88,4.08,3.72,8.17,5.58,12.25l2.16-3.76c-4.44,.35-8.73-1.13-11.9-4.29-2.28-2.27-5.82,1.26-3.54,3.54,4.04,4.02,9.74,6.21,15.44,5.76,2-.16,2.97-1.98,2.16-3.76-2.05-4.5-3.95-9.11-6.19-13.52-1.8-3.55-4.53-6.79-8.78-7.03l1.26,4.66c2.11-.93,4.17-1.97,6.16-3.13s4.19-2.52,4.3-5.1c.16-3.85-3.88-7.26-7.05-8.74-7.98-3.73-16.42-.55-22.96,4.53-1.07,.83-.87,2.66,0,3.54,1.05,1.05,2.47,.83,3.54,0h0Z"/><path class="b" d="M143.16,27.12c-.34,1.29-.61,1.84-1.27,3.06-.59,1.1-1.25,2.16-1.84,3.26-1.22,2.26-2.32,4.87-2.07,7.49,.17,1.7,.85,3.25,2.37,4.16,1.44,.85,3.35,.76,4.92,.41,2.83-.62,5.21-2.6,7.25-4.55,2.49-2.39,4.88-4.89,7.2-7.45,.91-1,.99-2.55,0-3.54-.92-.92-2.63-1-3.54,0-2.29,2.52-4.64,4.99-7.09,7.35-1.04,1-1.9,1.79-3.07,2.5-1.04,.63-2.19,1.03-3.14,.93-.28-.03-.14-.2,.03,.05,.28,.43,.13,.2,.05-.16,.1,.46,0-.44,0-.56,0-.17,.02-.35,.04-.52-.04,.24-.03,.21,.02-.1,.32-1.42,.59-2.04,1.23-3.25,1.35-2.54,2.98-4.93,3.74-7.75,.83-3.11-3.99-4.44-4.82-1.33h0Z"/><path class="b" d="M152,14.9c.33,.27,.63,.57,.89,.91l-.39-.51c.29,.38,.53,.79,.72,1.23l-.25-.6c.15,.35,.26,.71,.33,1.07,.08,.33,.23,.61,.45,.85,.18,.27,.41,.49,.7,.64,.29,.18,.6,.28,.93,.3,.33,.07,.66,.06,1-.04,.6-.2,1.19-.57,1.49-1.15l.25-.6c.12-.44,.12-.89,0-1.33-.06-.32-.15-.63-.27-.93-.19-.49-.4-.99-.67-1.45s-.59-.86-.93-1.25c-.22-.25-.46-.48-.72-.69-.23-.24-.49-.42-.8-.52-.3-.16-.62-.23-.96-.22-.34-.01-.67,.06-.96,.22-.31,.1-.58,.27-.8,.52-.44,.48-.76,1.1-.73,1.77l.09,.66c.12,.42,.33,.79,.64,1.1h0Z"/><path class="b" d="M159.01,13.9s0-.09,0-.13l-.09,.66c0-.05,.02-.11,.04-.16l-.25,.6c.02-.05,.05-.1,.08-.14l-.39,.51s.08-.09,.13-.13l-.51,.39s.09-.06,.14-.08l-.6,.25s.1-.04,.16-.04l-.66,.09s.09,0,.13,0c.34,.01,.67-.06,.96-.22,.31-.1,.58-.27,.8-.52,.24-.23,.42-.49,.52-.8,.16-.3,.23-.62,.22-.96l-.09-.66c-.12-.42-.33-.79-.64-1.1l-.51-.39c-.39-.23-.81-.34-1.26-.34-.03,0-.05,0-.08,0h-.06l-.66,.09s-.09,.02-.14,.04c-.22,.09-.45,.17-.66,.28-.02,.01-.04,.02-.06,.03-.2,.13-.38,.28-.56,.43-.02,.02-.04,.03-.05,.05s-.03,.04-.05,.05c-.15,.18-.3,.36-.43,.56-.01,.02-.03,.04-.04,.06-.11,.21-.19,.43-.28,.65-.02,.04-.03,.09-.04,.14-.03,.22-.09,.48-.09,.73,0,.03,0,.05,0,.08-.01,.34,.06,.67,.22,.96,.1,.31,.27,.58,.52,.8,.23,.24,.49,.42,.8,.52,.3,.16,.62,.23,.96,.22l.66-.09c.42-.12,.79-.33,1.1-.64l.39-.51c.23-.39,.34-.81,.34-1.26h0Z"/><path class="b" d="M174.59,9.74c-.01-.12-.02-.25-.02-.37,.02-.29,0-.24-.04,.13-.04-.05,.11-.49,.14-.51-.14,.32-.15,.36-.03,.11l.09-.16c.06-.1,.13-.21,.2-.3-.2,.26-.22,.28-.04,.07,.14-.13,.27-.28,.41-.41,.1-.09,.19-.17,.3-.26-.22,.17-.26,.19-.11,.09,.36-.25,.72-.49,1.1-.7,.84-.48,1.98-.97,2.69-1.27,.25-.11,.97-.4,1.42-.57,.29-.11,.58-.22,.87-.33,.16-.06,.69-.15,.8-.28-.31,.05-.61,0-.9-.17l-.51-.5c.07,.11,.13,.22,.19,.34-.13-.32-.14-.32-.01,0,.16,.49,.35,.96,.51,1.45,.37,1.14,.68,2.29,.94,3.46,.11,.5,.21,1,.3,1.51,.06,.34,.11,.67,.16,1.01,.12,.83-.05-.48,.04,.35,.13,1.19,.21,2.38,.24,3.58,.03,1.31,1.13,2.56,2.5,2.5s2.53-1.1,2.5-2.5c-.09-4.52-.88-9.22-2.65-13.4-.6-1.43-1.7-2.47-3.31-2.58-1.2-.08-2.39,.52-3.47,.95-1.94,.78-4.03,1.53-5.75,2.74-1.98,1.39-3.76,3.46-3.53,6.05,.12,1.3,1.07,2.56,2.5,2.5,1.25-.06,2.62-1.11,2.5-2.5h0Z"/><path class="b" d="M188.98,17.43c1.26-2.12,3.09-3.77,5.39-4.76,2.54-1.1,5.4-1.42,8.13-1.61,.58-.04,1.16-.08,1.74-.01-.33-.04,.39,.07,.09,.01,.01,0,.31,.21,.21,.11-.06-.06-.13-.23-.02,0,0,.02,.04,.33,.05,.17,0,.1-.06,.71,0,.45-.12,.6-.32,.96-.64,1.46-.61,.96-1.58,1.8-2.47,2.59-1.25,1.1-2.51,2.17-3.77,3.26l-8.7,7.51c-1.02,.88-.91,2.63,0,3.54,1.01,1.01,2.51,.88,3.54,0l9.15-7.89c2.71-2.34,5.94-4.59,7.34-8.01,.7-1.71,.78-3.66-.04-5.34-.9-1.83-2.77-2.67-4.71-2.84-1.59-.14-3.27,.11-4.84,.32-1.82,.23-3.63,.53-5.38,1.12-3.93,1.32-7.22,3.85-9.35,7.42-1.65,2.77,2.67,5.29,4.32,2.52h0Z"/><path class="b" d="M173.5,36.22c2.95,2.28,5.9,4.59,9.13,6.46s6.88,3.64,10.51,3.74c4.15,.11,6.34-4.5,7.22-7.96,1.01-3.94-.11-7.66-3.38-10.12-1.54-1.16-3.55-2.56-5.54-2.6-2.46-.06-4.81,2.39-3.91,4.89,.46,1.27,1.7,2.12,3.08,1.75,1.23-.34,2.21-1.8,1.75-3.08,.06,.55-.11,.98-.51,1.28-.29-.04-.43,.02-.4,.18-.01,.03,.62,.36,.67,.38,.61,.35,1.22,.7,1.79,1.1,.87,.63,1.64,1.46,1.82,2.51,.24,1.34-.21,2.84-.74,4.06-.3,.7-.96,2.43-1.68,2.6-.55,.13-1.42-.23-1.93-.37-.78-.21-1.54-.46-2.29-.75-1.42-.54-2.77-1.26-4.08-2.03-2.8-1.64-5.39-3.6-7.96-5.58-1.07-.83-2.5-1.04-3.54,0-.86,.86-1.07,2.7,0,3.54h0Z"/><path class="b" d="M50.62,202.82c-1.93,1.5-3.22,3.64-4.27,5.8-1.19,2.43-2.29,4.91-3.31,7.42-2.01,4.94-3.55,10.22-3.58,15.59-.03,4.41,1.19,9.3,4.76,12.19,3.79,3.08,9.09,3.22,13.37,1.07,4.97-2.49,7.52-7.9,8.17-13.17h-5c-.64,5.86,2.56,11.52,7.27,14.83,4.61,3.24,12.14,4.22,16.18-.45s3.71-11.6,3.22-17.18c-.61-6.93-2.51-13.68-5.66-19.88-1.49-2.92-3.59-6.53-7.3-6.71s-6.63,3.58-5.04,7.06c.56,1.23,2.34,1.53,3.42,.9,1.26-.74,1.46-2.19,.9-3.42,0,0,.06,.49,.11,.59,.13,.26-.33,0,.04,.03-.09,0,.49-.18,.27-.17,.41-.02,1.11,.65,1.48,1.12,1.43,1.82,2.42,4.22,3.29,6.34,1.93,4.69,3.16,9.73,3.54,14.79,.18,2.47,.23,4.98,0,7.44-.17,1.8-.58,3.75-1.62,5.26-2.19,3.19-6.96,2.09-9.73,.33-3.68-2.33-5.86-6.56-5.38-10.9,.15-1.34-1.25-2.5-2.5-2.5-1.49,0-2.33,1.15-2.5,2.5-.4,3.23-2.06,6.64-4.88,8.4-2.59,1.61-6.3,1.84-8.67-.3s-2.84-5.85-2.73-8.92c.16-4.37,1.46-8.63,3.05-12.67,.87-2.22,1.86-4.39,2.89-6.54,.96-2.02,1.96-3.94,3.76-5.34,1.07-.83,.87-2.66,0-3.54-1.05-1.05-2.47-.83-3.54,0h0Z"/><path class="b" d="M53.21,209.92l4.08-1.57c.68-.26,1.21-.13,.03-.58-.92-.35-.85-.61-.68,.05,.13,.51,.16,1,.14,1.58-.06,2.53-1.29,5-2.27,7.33s-2.46,5.54-1.13,7.98c.76,1.4,2.43,2.12,3.97,1.66,1.63-.49,2.88-2.24,2.26-3.95-.46-1.27-1.7-2.12-3.08-1.75-1.23,.34-2.21,1.8-1.75,3.08-.11-1.26,.28-1.97,1.17-2.13,.74-.32,1.37,0,1.91,.94v.18c0-.13,0-.25,.02-.38,.01-.18,.01-.17,0,.04l.07-.32c.09-.31,.16-.63,.25-.95,.31-1.05,.71-2.07,1.14-3.07,.94-2.24,1.92-4.44,2.27-6.85s.39-6.06-1.91-7.54c-1.41-.91-2.78-.5-4.22,.06l-3.59,1.38c-1.26,.49-2.13,1.68-1.75,3.08,.33,1.2,1.81,2.23,3.08,1.75h0Z"/><path class="b" d="M58.01,225.18c.03-.11,.07-.22,.1-.32-.15,.33-.17,.38-.05,.13,.09-.15,.17-.29,.25-.44,.26-.47-.35,.36,.02-.04,.14-.15,.27-.29,.42-.43,.46-.42-.33,.16,.1-.08,.15-.09,.29-.18,.44-.26,.1-.05,.2-.1,.31-.15l-.28,.12c.02-.08,.57-.17,.65-.19,.48-.13-.53,0,0,0,.18,0,.35,0,.53,0,.51,.01-.53-.12,.11,.03,.12,.03,.52,.08,.58,.18l-.27-.12c.11,.05,.21,.1,.31,.16,.15,.08,.3,.18,.45,.28,.22,.16,.19,.14-.09-.07,.09,.08,.17,.16,.26,.24,.11,.1,.3,.25,.35,.39-.19-.25-.24-.31-.13-.15,.05,.07,.1,.15,.14,.22,.06,.1,.11,.2,.17,.31-.12-.31-.15-.37-.08-.19,.12,.38,.24,.76,.37,1.13,.4,1.15,1,2.22,2.07,2.87,2.19,1.34,5.7-.1,5.54-2.9-.07-1.3-1.1-2.56-2.5-2.5-1.29,.06-2.58,1.1-2.5,2.5,.01,.45,.1,.17,.26-.82,.1-.19,.24-.34,.41-.46,.15-.14,.32-.24,.53-.29-.26,.06-.16,.05,.28-.02-.44,.02,.59,.17,.14,.02,.2,.04,.37,.13,.51,.27,.19,.16,.2,.16,.02,0,.2,.28,.23,.3,.09,.07-.1-.2-.11-.21-.03-.02,.18,.34-.1-.31-.12-.39-.11-.35-.22-.69-.36-1.03-.84-2.05-2.42-3.54-4.5-4.3-3.89-1.43-8.17,1.1-9.33,4.94-.38,1.25,.45,2.78,1.75,3.08s2.67-.41,3.08-1.75h0Z"/><path class="b" d="M69.91,223.05c-.35-1.33-.32-2.72-.04-4.02,.36-1.69,.97-3.32,1.59-4.93,1.27-3.31,2.58-6.68,2.42-10.28-.06-1.35-1.11-2.5-2.5-2.5-1.31,0-2.56,1.14-2.5,2.5,.07,1.73-.18,2.98-.7,4.69s-1.23,3.41-1.86,5.11c-1.29,3.46-2.2,7.1-1.22,10.76,.83,3.11,5.65,1.79,4.82-1.33h0Z"/><path class="b" d="M83.99,217.79l-.78,.98,3.54,3.54c4.38-5.62,10.33-9.89,17.15-12.02,1.68-.52,3.43-.98,5.18-1.21,1.27-.16,2.73-.3,3.36,1.01,.82,1.69,1.08,3.85,1.34,5.68,.3,2.15,.4,4.33,.41,6.49,.01,5-.57,9.99-1.15,14.95-.16,1.34,1.26,2.5,2.5,2.5,1.48,0,2.34-1.15,2.5-2.5,.59-4.96,1.16-9.94,1.15-14.95,0-2.51-.19-5-.54-7.49s-.75-4.88-1.81-7.04c-2.2-4.49-7.34-3.96-11.44-3.03s-8.06,2.55-11.64,4.72c-4.04,2.45-7.65,5.62-10.56,9.34-.83,1.06-1.04,2.5,0,3.54,.87,.87,2.69,1.06,3.54,0l.78-.98c.84-1.06,1.03-2.5,0-3.54-.87-.87-2.69-1.06-3.54,0h0Z"/><path class="b" d="M87.86,239.29c1.95,.97,3.93,1.45,6.1,1.1,1.79-.28,3.38-1.18,4.77-2.3,2.79-2.25,4.16-5.68,5.45-8.9,.49-1.22-.53-2.8-1.75-3.08-1.45-.33-2.55,.44-3.08,1.75-.13,.34-.27,.67-.41,1.01-.06,.13-.11,.27-.17,.4,.19-.46,0,.01-.05,.1-.28,.63-.57,1.25-.89,1.86s-.72,1.24-1.14,1.83c-.13,.19-.16,.18,0,0-.11,.13-.22,.26-.34,.39-.22,.25-.46,.49-.71,.71-.1,.09-.21,.17-.3,.26-.21,.2,.34-.22-.05,.04-.28,.18-.55,.37-.85,.53-.12,.06-.24,.12-.35,.18-.55,.28,.29-.08-.04,.02-.32,.1-.62,.21-.94,.28-.06,.02-.13,.03-.19,.04-.19,.03-.13,.03,.18-.02-.03,.04-.34,.03-.39,.03-.16,0-.33,0-.49,0-.22,0-.41-.05-.08,0-.37-.07-.74-.16-1.09-.29-.14-.05-.29-.1-.43-.16,.48,.2-.19-.11-.23-.13-1.17-.58-2.76-.35-3.42,.9-.6,1.13-.35,2.8,.9,3.42h0Z"/><path class="b" d="M98.26,228.87c-.57,4.11,.97,8.12,4.4,10.55s7.89,1.73,10.95-.85c1.74-1.47,2.75-3.63,2.86-5.89,.06-1.31-1.19-2.56-2.5-2.5-1.41,.06-2.43,1.1-2.5,2.5,0,.12-.01,.23-.02,.35,.06-.38,.06-.43,.01-.16-.04,.16-.08,.33-.13,.49-.03,.11-.07,.21-.11,.32,.15-.34,.16-.38,.05-.13-.08,.15-.16,.3-.25,.44-.06,.1-.12,.19-.19,.28-.16,.22-.13,.19,.08-.1-.01,.11-.26,.3-.34,.38-.16,.17-.33,.31-.5,.47-.39,.36,.38-.23-.05,.03-.23,.14-.78,.63-1.06,.6,.33-.13,.37-.15,.11-.05-.11,.04-.22,.08-.33,.11-.17,.05-.33,.1-.5,.14-.11,.03-.23,.05-.34,.07-.28,.04-.23,.04,.15-.02-.02,.05-.43,.03-.52,.03-.1,0-.63,.05-.69-.03,.38,.06,.43,.06,.15,.01-.09-.02-.17-.04-.25-.06-.2-.05-.4-.12-.6-.18-.47-.14,.41,.25-.14-.07-.18-.1-.36-.2-.54-.31-.07-.04-.6-.47-.32-.21s-.23-.22-.28-.27c-.15-.14-.29-.29-.43-.45-.06-.07-.12-.13-.17-.2-.17-.21-.15-.18,.06,.08-.14-.08-.26-.39-.35-.52-.11-.18-.21-.36-.31-.55-.04-.08-.29-.72-.17-.36s-.1-.31-.12-.38c-.06-.2-.12-.4-.17-.61-.04-.17-.15-.45-.12-.62,.05,.37,.05,.41,.02,.13,0-.09-.01-.18-.02-.27-.01-.21-.01-.42,0-.63,0-.15,.09-.97,0-.23,.18-1.29-.31-2.75-1.75-3.08-1.18-.27-2.88,.36-3.08,1.75h0Z"/><path class="b" d="M97.94,217.72c.06,.41,.09,.83,.2,1.24s.28,.77,.44,1.15c.25,.59,.62,1.08,1.02,1.58s.87,.87,1.38,1.24,1.1,.62,1.69,.85c.33,.1,.66,.12,1,.04,.33-.02,.64-.11,.93-.3,.52-.3,1.01-.9,1.15-1.49,.15-.64,.11-1.36-.25-1.93l-.39-.51c-.31-.31-.68-.52-1.1-.64-.07-.02-.13-.05-.2-.08l.6,.25c-.34-.15-.66-.34-.96-.56l.51,.39c-.31-.24-.58-.52-.83-.82l.39,.51c-.25-.32-.46-.67-.62-1.05l.25,.6c-.14-.34-.24-.7-.3-1.07l.09,.66v-.05c0-.34-.07-.67-.22-.96-.1-.31-.27-.58-.52-.8-.43-.43-1.15-.76-1.77-.73s-1.32,.24-1.77,.73l-.39,.51c-.23,.39-.34,.81-.34,1.26h0Z"/><path class="b" d="M103,221.54c.36-.46,.77-.87,1.24-1.23l-.51,.39c.4-.31,.82-.57,1.28-.78,.29-.16,.53-.37,.7-.64,.22-.24,.37-.52,.45-.85,.1-.33,.12-.66,.04-1-.02-.33-.11-.64-.3-.93l-.39-.51c-.31-.31-.68-.52-1.1-.64l-.66-.09c-.45,0-.87,.12-1.26,.34-.68,.32-1.27,.77-1.87,1.24-.43,.34-.82,.74-1.15,1.17-.24,.23-.42,.49-.52,.8-.16,.3-.23,.62-.22,.96-.01,.34,.06,.67,.22,.96,.1,.31,.27,.58,.52,.8,.48,.44,1.1,.76,1.77,.73l.66-.09c.42-.12,.79-.33,1.1-.64h0Z"/><path class="b" d="M120.68,216.67c5.62-3.91,12.47-5.68,19.29-4.88,1.52,.18,3.32,.41,4.71,1.07,.93,.44,1.04,1.18,.9,2.02-.48,3-4.33,3.91-6.78,4.62-2.68,.78-2.2,4.92,.66,4.91,3.79-.01,6.53,3.6,8.62,6.33,3.26,4.26,6.51,8.53,9.76,12.8l.9-3.42c-2.47,1.39-5.55,.59-7.69-1.06-2.51-1.93-4.04-4.88-5.33-7.7-.56-1.23-2.34-1.53-3.42-.9-1.26,.74-1.46,2.19-.9,3.42,1.75,3.82,4.06,7.54,7.67,9.87s8.39,2.83,12.2,.68c1.07-.6,1.71-2.35,.9-3.42-3.62-4.75-7.19-9.55-10.88-14.25-2.95-3.75-6.74-7.37-11.82-7.35l.66,4.91c3.35-.97,6.87-2.18,8.97-5.15,1.76-2.48,2.13-6.19,.29-8.72-2.19-3-6.8-3.45-10.23-3.73s-6.96,.03-10.31,.84c-3.81,.92-7.47,2.56-10.69,4.8-1.11,.77-1.62,2.19-.9,3.42,.64,1.1,2.31,1.67,3.42,.9h0Z"/><path class="b" d="M119.47,231.95c.05,.18,.1,.35,.15,.53,0-.01,.08,.43,.05,.2,0-.01,.04,.56,.04,.76,.02,.69-.01,1.39,0,2.08,.02,1.29,.2,2.58,.69,3.78,.96,2.33,2.67,4.38,4.97,5.48,4.75,2.28,10.89,.44,13.33-4.35,1.44-2.83,1.52-6.02,1.21-9.12-.13-1.3-1.06-2.56-2.5-2.5-1.24,.06-2.64,1.11-2.5,2.5s.17,2.77,.11,4.17c-.04,.31-.04,.34,0,.11-.02,.17-.05,.34-.09,.51-.06,.33-.14,.67-.24,.99-.03,.09-.35,.93-.2,.59-.14,.3-.3,.59-.48,.87-.08,.12-.16,.25-.25,.37,.17-.21,.16-.21-.03,.01-.21,.21-.42,.42-.63,.63-.22,.18-.22,.19-.01,.03-.12,.09-.24,.17-.36,.26-.25,.16-.5,.31-.77,.45-.13,.07-.27,.13-.4,.19,.25-.11,.25-.11-.02,0-.29,.08-.56,.18-.86,.24-.14,.03-.29,.06-.44,.09,.3-.04,.3-.04,0,0-.26,0-.52,.03-.78,.02-.13,0-.89-.11-.33,0-.29-.05-.57-.12-.85-.2-.14-.04-.28-.09-.41-.14q.26,.12,0,0c-.26-.13-.51-.26-.76-.42-.1-.06-.77-.6-.37-.25-.22-.19-.43-.38-.63-.59-.07-.08-.62-.77-.31-.33-.17-.24-.33-.48-.47-.73-.05-.09-.43-.91-.22-.38-.11-.27-.2-.54-.27-.82-.02-.09-.16-.94-.11-.46-.04-.37-.05-.74-.05-1.1-.02-1.6,.06-3.2-.41-4.76-.38-1.25-1.77-2.17-3.08-1.75s-2.15,1.73-1.75,3.08h0Z"/><path class="b" d="M125.38,217.89c.94,1.9,2.18,3.65,3.61,5.2,.42,.46,1.15,.73,1.77,.73s1.35-.27,1.77-.73,.76-1.1,.73-1.77-.27-1.26-.73-1.77c-.39-.43-.77-.87-1.12-1.33l.39,.51c-.81-1.05-1.51-2.18-2.1-3.37-.27-.54-.93-.99-1.49-1.15-.6-.16-1.4-.09-1.93,.25s-1,.86-1.15,1.49l-.09,.66c0,.45,.12,.87,.34,1.26h0Z"/><path class="b" d="M131.04,220.51l3.59-2.26c.54-.34,.98-.87,1.15-1.49,.1-.33,.12-.66,.04-1-.02-.33-.11-.64-.3-.93-.34-.53-.86-1-1.49-1.15s-1.35-.11-1.93,.25l-3.59,2.26c-.54,.34-.98,.87-1.15,1.49-.1,.33-.12,.66-.04,1,.02,.33,.11,.64,.3,.93,.34,.53,.86,1,1.49,1.15s1.35,.11,1.93-.25h0Z"/><path class="b" d="M151.81,213.91c-.21,.16-.27,.3-.16,.41h.04s.89-.46,1.01-.51c.78-.34,1.57-.64,2.37-.92,1.72-.6,3.49-1.09,5.28-1.46,2.99-.62,6.51-1.19,9.54-.52,.56,.12,1.1,.27,1.6,.55,.4,.22,.64,.64,.99,.85,.22,.43,.33,.15,.32-.83-.08,.11-.18,.19-.3,.26-.29,.09-.63,.42-.9,.58-.62,.37-1.27,.7-1.95,.96-3.08,1.17-6.4,1.41-9.66,1.64v5c4.9-.61,9.97,.1,14.35,2.44,.38,.2,.77,.41,1.08,.71,.03,.03,.47,.48,.41,.5-.11,.04-.03-.59-.03-.6-.02-.22,.69-.33-.06-.06-.15,.05-.32,.12-.48,.17-.63,.21-1.29,.38-1.93,.54-2.63,.65-5.28,.98-7.99,1.04l.66,4.91c3.87-.67,7.9-.59,11.74,.25,1.47,.32,2.67,.66,3.83,1.56-.09-.07-.05-.3,.05-.34-.47,.23-.99,.41-1.56,.52-3.79,.69-7.88,.62-11.71,.4s-7.96-.87-11.85-1.86c-3.12-.79-4.45,4.03-1.33,4.82,7.88,2,16.11,2.64,24.2,1.73,3.27-.37,7.47-1.64,7.14-5.77-.31-3.81-4.51-5.26-7.66-5.93-4.7-.99-9.45-1.01-14.17-.2-2.8,.48-2.11,4.97,.66,4.91,3.72-.08,7.53-.58,11.09-1.7,1.5-.47,2.95-1.18,3.75-2.6,.97-1.7,.53-3.69-.64-5.15-2.07-2.58-5.99-3.84-9.08-4.62-3.41-.85-6.98-1.09-10.47-.66-1.34,.17-2.5,1.03-2.5,2.5,0,1.28,1.15,2.59,2.5,2.5,3.62-.25,7.36-.51,10.8-1.75s8.57-3.9,6.09-8.24c-1.7-2.98-5.19-4.02-8.41-4.21-3.8-.23-7.8,.4-11.46,1.35-2.2,.57-4.34,1.34-6.42,2.24-1.93,.83-3.94,2.23-3.79,4.6,.09,1.35,1.09,2.5,2.5,2.5,1.29,0,2.59-1.15,2.5-2.5h0Z"/><path class="b" d="M47.34,122.93c-.26-10.17-.32-20.35-.18-30.52,.07-5.05,.19-10.09,.36-15.13,.08-2.48,.18-4.96,.28-7.44,.06-1.32,.12-2.64,.18-3.97,.05-1.01-.09-2.38,.26-3.24l-.64,1.1c-.28,.36-.8-.03-.15,.14-.2-.05,.34,.05,.45,.07,.8,.13,1.59,.26,2.39,.38,1.81,.27,3.63,.52,5.45,.74,3.2,.39,6.4,.68,9.61,.91,6.6,.47,13.21,.66,19.82,.75,13.25,.18,26.51-.04,39.74,.79,1.77,.11,3.54,.24,5.31,.4,.96,.08,1.93,.17,2.89,.27,.32,.03,.64,.06,.96,.1,1.29,.16,.09,.07,.29-.29-.03,.05,.09,.3,.08,.37-.03,.38,.02,.8,.02,1.19,0,.97,0,1.95-.01,2.92l-.02,5.84c-.01,3.22,4.99,3.22,5,0l.03-8.52c0-2.67-.49-5.44-3.47-6.25-1.21-.33-2.6-.34-3.85-.46-1.45-.14-2.89-.26-4.34-.37-2.82-.21-5.64-.37-8.46-.49-11.14-.48-22.3-.35-33.45-.49s-22.3-.51-33.33-2.1c-2.28-.33-5.42-1.48-7.59-.23-2.49,1.44-1.94,5.26-2.06,7.7-.27,5.7-.47,11.41-.61,17.11-.31,12.9-.3,25.81,.03,38.71,.08,3.21,5.08,3.22,5,0h0Z"/><path class="b" d="M46.41,126.11c12.18-.64,24.39-.39,36.54,.74,1.35,.13,2.5-1.24,2.5-2.5,0-1.46-1.15-2.37-2.5-2.5-12.15-1.13-24.36-1.38-36.54-.74-3.2,.17-3.22,5.17,0,5h0Z"/><path class="b" d="M30.84,132.96c-8.79,13.24-22.96,22.04-30.51,36.24-.81,1.52-.05,3.09,1.49,3.67,5.26,1.98,10.83,2.74,16.38,3.41s11.58,1.36,17.38,1.96c11.62,1.21,23.27,2.21,34.93,3.02,6.57,.45,13.14,.84,19.72,1.17,3.22,.16,3.21-4.84,0-5-23.02-1.14-45.99-3.06-68.88-5.76-6.15-.73-12.36-1.42-18.2-3.61l1.49,3.67c7.51-14.13,21.73-23.01,30.51-36.24,1.78-2.69-2.54-5.2-4.32-2.52h0Z"/><path class="b" d="M105.14,151.87c-.27-7.69-.53-15.41,.04-23.1,.28-3.74,.76-7.45,1.33-11.16,.28-1.84,.59-3.68,.89-5.52,.13-.75,.23-1.51,.38-2.26,.05-.24,.09-.84,.26-1.03,.16-.17-.27,.21,.08,.06,.61-.26,1.72-.08,2.4-.11,1-.04,1.99-.08,2.99-.11,1.99-.07,3.99-.12,5.98-.15,3.9-.07,7.81-.08,11.72-.03s7.81,.16,11.71,.33c3.64,.16,7.3,.37,10.94-.03,4.14-.46,8.17-1.6,12.31-2.07s8.63-.57,12.95-.65l-2.41-1.84c3.34,15.25,4.08,31,2.24,46.51,0-.07-.13,1-.15,.99,.01,0,.44-.53,.45-.4,0-.01-2.57,.12-2.8,.13-2.15,.09-4.29,.17-6.44,.23-3.96,.12-7.93,.19-11.89,.22-8.09,.06-16.19-.06-24.27-.36-9.08-.34-18.15-.91-27.19-1.71-1.35-.12-2.5,1.23-2.5,2.5,0,1.45,1.15,2.38,2.5,2.5,17.03,1.49,34.13,2.19,51.22,2.07,4.21-.03,8.42-.11,12.63-.24,2.15-.07,4.29-.15,6.44-.24,1.89-.08,4.11,.08,5.56-1.36s1.39-3.86,1.6-5.77c.23-2.06,.4-4.13,.54-6.21,.26-4.07,.35-8.14,.26-12.22-.21-9.41-1.36-18.79-3.37-27.98-.23-1.05-1.36-1.85-2.41-1.84-4,.07-8.01,.15-11.99,.54s-7.85,1.31-11.79,1.96-7.64,.46-11.46,.29c-4.14-.18-8.27-.32-12.41-.37s-7.98-.05-11.97,.03c-1.99,.04-3.99,.09-5.98,.15-2.12,.07-4.37-.03-6.45,.35-4.13,.77-4.25,5.36-4.8,8.69-.67,4.06-1.29,8.13-1.73,12.22-.97,8.97-.71,17.97-.4,26.97,.11,3.21,5.11,3.22,5,0h0Z"/><path class="b" d="M46.34,63.82l-2.44,5.82c-.42,1,.28,2.32,1.15,2.82,.99,.58,2.2,.35,3.03-.39,1.59-1.43,3.29-2.68,5.12-3.79l-3.42-3.42-2.07,4.56c-.82,1.81,.56,4.44,2.82,3.67,2.96-1.01,5.76-2.38,8.31-4.2l-3.03-3.93c-3.22,2.63-5.82,6.01-7.52,9.81-1,2.22,1.08,4.67,3.42,3.42,4.29-2.29,8.3-5.04,12.03-8.16l-3.54-3.54c-4.2,4.18-8.04,8.67-11.57,13.42-.65,.88-.33,2.31,.39,3.03,.83,.83,2.02,.87,3.03,.39,6.8-3.24,12.85-8.03,17.54-13.92,.84-1.05,1.03-2.51,0-3.54-.98-.98-2.56-.93-3.54,0l-10.38,9.9c-3.11,2.97-6.42,5.87-8.58,9.65-.55,.96-.4,2.24,.39,3.03,.85,.85,2,.84,3.03,.39,9-3.94,16.59-10.82,21.53-19.3l-4.57-1.93c-1.55,4.45-5.82,7.76-9.05,10.98l-11.99,11.95c-2,1.99,.56,5.39,3.03,3.93,9.34-5.53,18.72-11.32,25.25-20.2,.73-.99,.26-2.55-.64-3.23-1.07-.8-2.28-.6-3.28,.2-7.74,6.17-14.88,13.06-21.34,20.56-1.88,2.19,.44,5.16,3.03,3.93,12.33-5.85,23.49-14.41,31.08-25.86,1.64-2.48-1.89-4.81-3.93-3.03-6.33,5.53-12.62,11.1-18.83,16.77-3.07,2.81-6.13,5.63-9.15,8.49-2.75,2.6-5.6,5.22-7.37,8.63-1.22,2.36,1.18,4.4,3.42,3.42,13.1-5.74,27.03-12.25,34.7-24.98,1.21-2.01-1.35-4.97-3.42-3.42-5.75,4.3-11.5,8.59-17.24,12.89-5.36,4.02-10.69,8.13-15.25,13.05-1.56,1.68-.05,5.13,2.43,4.18,13.01-5.01,24.74-12.99,34.03-23.41l-3.54-3.54c-8.44,10.07-17.91,19.21-27.69,27.97-2.17,1.95,.6,5.24,3.03,3.93,8.42-4.57,16.41-9.84,23.97-15.72,1.63-1.26,.45-3.61-1.1-4.18-3.53-1.29-7.04,2.09-9.73,3.92l-9.62,6.54-19.25,13.07c-1.03,.7-1.54,1.94-1.02,3.12,.48,1.09,1.74,1.84,2.95,1.45,7.05-2.32,14.01-4.91,20.85-7.78,5.98-2.51,12.71-4.94,16.91-10.15,2.03-2.52-1.01-5.56-3.54-3.54-7.56,6.06-15.48,11.67-23.67,16.84l2.52,4.32c9.29-6.63,22.06-8.35,28.36-18.8,1.51-2.51-1.86-4.88-3.93-3.03-7.94,7.12-16.33,13.71-25.13,19.75l2.52,4.32c7.41-5.48,16.82-7.17,24.37-12.41,1.11-.77,1.62-2.19,.9-3.42-.66-1.13-2.28-1.63-3.42-.9-5.99,3.82-11.83,7.85-17.53,12.09-1,.74-1.56,1.9-1.02,3.12,.48,1.08,1.75,1.85,2.95,1.45,6.82-2.28,13.44-5.13,19.78-8.53l-3.03-3.93-8.78,8.92c-1.68,1.71,0,4.99,2.43,4.18,2.97-.99,5.85-2.25,8.59-3.79l-3.42-.9c.37,.5,0-.16,.1-.39,.08-.17,.49-.34,.56-.37l2.82,3.67c1.88-3.25,3.23-8.53,.82-11.85-1.38-1.9-3.56-2.12-5.74-2.01-2.47,.12-4.94,.52-7.33,1.15l3.08,3.08c.82-2.85,2.92-5.12,4.7-7.43s4.02-5.45,3.96-8.61c-.04-2.35-1.88-3.39-3.88-3.99s-3.92-.99-5.92-1.33c-.44-.07-.89-.13-1.31-.29-.18-.07,.01,.08,.03,.11-.24-.48-.06-1.15,.07-1.64,.44-1.65,1.22-3.21,2.07-4.68,2.07-3.56,4.85-6.6,7.61-9.62,1.98-2.16-.48-5.12-3.03-3.93-3.74,1.76-7.31,3.83-10.69,6.22-2.67,1.88-.41,5.6,2.52,4.32,6.75-2.96,13.31-6.33,19.64-10.11l-3.03-3.93c-6.3,6.12-12.09,12.7-17.42,19.68-.66,.87-.32,2.31,.39,3.03,.81,.81,2.04,.9,3.03,.39,8-4.11,15.16-9.83,20.91-16.76,2.03-2.44-1.15-5.78-3.54-3.54l-15.94,14.96c-2.02,1.9,.72,5.65,3.03,3.93,9.62-7.19,20.5-12.45,32.13-15.47l-1.93-4.57-23.01,14.18,2.52,4.32c9.01-6.14,18.7-11.26,28.89-15.15l-2.43-4.18c-7.95,6.66-16.87,12.01-25.73,17.34-2.34,1.41-.83,5.56,1.93,4.57,10.75-3.85,21.36-8.09,31.82-12.69l-2.52-4.32-20.59,12.55,2.52,4.32c9.06-6.65,18.83-12.27,29.13-16.76l-2.52-4.32-18.69,14.31c-1.07,.82-1.64,2.15-.9,3.42,.66,1.12,2.28,1.64,3.42,.9,8.08-5.25,16.83-9.34,26.06-12.12l-1.93-4.57c-7.72,3.38-14.9,7.73-21.56,12.89-.97,.75-.89,2.41-.2,3.28,.77,.97,2.12,1.28,3.23,.64,4.8-2.75,9.83-5.01,15.08-6.75l-2.43-4.18c-3.17,3.33-6.57,6.42-10.2,9.25-2.22,1.73,.73,5.6,3.03,3.93,3.35-2.43,7-4.37,10.94-5.68l-2.82-3.67c-.77,1.64-1.82,2.99-3.36,3.97l3.03,3.93c1.53-1.65,3.37-2.57,5.59-2.91l-3.08-3.08c-.36,1.31-.96,2.41-1.79,3.49-.75,.97-.25,2.56,.64,3.23,1.04,.78,2.31,.64,3.28-.2l2.67-2.28-4.18-2.43c-.33,2.34,.42,4.4,2.5,5.68,2.75,1.69,5.26-2.63,2.52-4.32,0,0-.2-.04-.2-.03,.34-2.45-2.16-4.16-4.18-2.43l-2.67,2.28,3.93,3.03c1.07-1.4,1.82-2.99,2.29-4.68,.56-2-1.26-3.35-3.08-3.08-2.98,.45-5.75,1.98-7.8,4.19-1.86,2.01,.55,5.52,3.03,3.93,2.22-1.43,4.03-3.37,5.15-5.77,.85-1.82-.58-4.42-2.82-3.67-4.34,1.45-8.43,3.5-12.13,6.18l3.03,3.93c3.63-2.83,7.03-5.91,10.2-9.25,1.64-1.72,.03-5-2.43-4.18-5.65,1.87-11.11,4.3-16.28,7.26l3.03,3.93c6.3-4.88,13.26-8.91,20.55-12.11,2.61-1.14,.75-5.37-1.93-4.57-9.62,2.9-18.83,7.14-27.25,12.62l2.52,4.32,18.69-14.31c2.56-1.96,.46-5.62-2.52-4.32-10.3,4.49-20.07,10.11-29.13,16.76-1.09,.8-1.63,2.17-.9,3.42,.67,1.15,2.26,1.6,3.42,.9l20.59-12.55c1.15-.7,1.59-2.24,.9-3.42-.75-1.27-2.18-1.44-3.42-.9-10.06,4.43-20.28,8.48-30.63,12.19l1.93,4.57c9.24-5.56,18.46-11.19,26.74-18.12,1.87-1.57-.13-5.06-2.43-4.18-10.6,4.05-20.7,9.27-30.08,15.66-2.63,1.79-.25,6.03,2.52,4.32l23.01-14.18c2.4-1.48,.85-5.29-1.93-4.57-12,3.12-23.39,8.55-33.32,15.98l3.03,3.93,15.94-14.96-3.54-3.54c-5.51,6.63-12.23,12.04-19.9,15.97l3.42,3.42c5.06-6.63,10.65-12.86,16.64-18.67,2.03-1.97-.58-5.39-3.03-3.93-6.33,3.77-12.89,7.15-19.64,10.11l2.52,4.32c3.38-2.38,6.95-4.46,10.69-6.22l-3.03-3.93c-4.27,4.67-8.57,9.53-10.68,15.6-1.01,2.91-.95,6.61,2.16,8.2,1.39,.71,3.03,.78,4.53,1.09,.84,.18,1.68,.37,2.52,.6,.51,.14,1.61,.26,1.92,.64l-.64-1.1c.25,.64-.74,2.41-1.19,3.16-.71,1.18-1.55,2.27-2.4,3.35-1.98,2.51-3.92,5.02-4.82,8.14-.54,1.85,1.26,3.55,3.08,3.08,1.5-.39,3.02-.72,4.56-.87,.8-.08,1.61-.13,2.41-.14,.4,0,1.05,.24,.66-.17,.55,.58,.36,2.06,.29,2.75-.14,1.35-.63,2.63-1.3,3.79-1.01,1.74,.71,4.5,2.82,3.67,2.53-.99,4.14-4.15,2.33-6.59-.82-1.1-2.13-1.62-3.42-.9-2.37,1.33-4.82,2.42-7.39,3.28l2.43,4.18,8.78-8.92c2.02-2.05-.54-5.26-3.03-3.93-5.97,3.2-12.17,5.88-18.59,8.03l1.93,4.57c5.7-4.24,11.55-8.27,17.53-12.09l-2.52-4.32c-7.55,5.24-16.96,6.93-24.37,12.41-1.08,.8-1.63,2.17-.9,3.42,.64,1.1,2.3,1.66,3.42,.9,9.15-6.27,17.88-13.13,26.14-20.53l-3.93-3.03c-2.61,4.34-7.02,7.06-11.46,9.24-5.09,2.5-10.46,4.45-15.1,7.77-1.1,.78-1.62,2.18-.9,3.42,.67,1.14,2.27,1.62,3.42,.9,8.56-5.4,16.79-11.3,24.68-17.62l-3.54-3.54c-3.84,4.77-10.1,6.96-15.59,9.24-6.56,2.73-13.22,5.19-19.97,7.41l1.93,4.57,18.02-12.24,9.01-6.12,4.3-2.92c.82-.55,2.37-2.12,3.42-1.74l-1.1-4.18c-7.22,5.61-14.93,10.58-22.96,14.94l3.03,3.93c9.78-8.76,19.25-17.9,27.69-27.97,.87-1.03,1.01-2.52,0-3.54-.91-.91-2.63-1.01-3.54,0-8.69,9.75-19.62,17.43-31.82,22.13l2.43,4.18c4.38-4.73,9.46-8.69,14.6-12.54,5.62-4.21,11.25-8.41,16.88-12.62l-3.42-3.42c-7.17,11.9-20.69,17.84-32.9,23.19l3.42,3.42c1.64-3.18,4.37-5.53,6.94-7.95,3.03-2.85,6.08-5.68,9.16-8.48,6.09-5.55,12.26-11.02,18.46-16.44l-3.93-3.03c-7.11,10.75-17.74,18.59-29.28,24.07l3.03,3.93c6.46-7.5,13.6-14.39,21.34-20.56l-3.93-3.03c-5.97,8.12-14.94,13.36-23.46,18.41l3.03,3.93,12.7-12.65c3.74-3.73,7.85-7.36,9.63-12.48,.94-2.71-3.17-4.33-4.57-1.93-4.54,7.81-11.47,13.88-19.73,17.5l3.42,3.42c2.02-3.53,5.24-6.2,8.15-8.98l10.03-9.57-3.54-3.54c-4.47,5.6-10.06,10.05-16.53,13.13l3.42,3.42c3.27-4.41,6.9-8.54,10.79-12.41,2.32-2.31-1.1-5.57-3.54-3.54-3.4,2.85-7.1,5.29-11.02,7.38l3.42,3.42c1.56-3.46,3.8-6.39,6.74-8.79,2.18-1.78-.71-5.57-3.03-3.93s-4.56,2.83-7.12,3.69l2.82,3.67,2.07-4.56c.47-1.03,.45-2.19-.39-3.03-.77-.77-2.09-.97-3.03-.39-2.18,1.33-4.23,2.87-6.13,4.58l4.18,2.43,2.44-5.82c.52-1.25-.56-2.75-1.75-3.08-1.44-.4-2.55,.5-3.08,1.75h0Z"/><path class="b" d="M107.96,107.53c-1.54,2.18-3.3,4.17-5.23,6.02s.69,5.63,3.03,3.93l10.73-7.84-3.03-3.93c-3.62,4.09-7.52,7.9-11.7,11.41l3.54,3.54c5.24-4.5,11.42-7.78,18.04-9.69l-2.82-3.67c-3.7,4.97-9.03,8.42-14.13,11.78l2.52,4.32c6.43-4.79,13.33-8.92,20.59-12.32l-3.42-3.42c-1.86,2.86-4.89,4.78-7.54,6.83-3.01,2.33-5.63,4.89-6.97,8.53-.74,2,1.92,4.03,3.67,2.82,7.44-5.16,15.5-9.38,24.02-12.46l-1.93-4.57-26.03,17.56c-1.03,.69-1.54,1.94-1.02,3.12,.45,1.03,1.78,1.92,2.95,1.45,12.74-5.19,25.19-11.07,37.27-17.64l-2.52-4.32-40.98,24.3c-2.79,1.66-.34,5.73,2.52,4.32l52.25-25.78-2.52-4.32c-6.25,4.61-13.37,7.73-20.31,11.14s-14.25,7.37-21.13,11.49c-3.98,2.38-7.9,4.87-11.76,7.44-2.66,1.77-.21,6.06,2.52,4.32,14.16-9,29.2-16.51,44.37-23.64,4.35-2.04,8.71-4.06,13.08-6.07l-3.03-3.93c-2.95,3.2-6.5,5.65-10.19,7.93-4.07,2.51-8.18,4.96-12.24,7.48-8.3,5.16-16.52,10.45-24.65,15.89-4.63,3.1-9.24,6.24-13.81,9.43-1.11,.77-1.62,2.19-.9,3.42,.64,1.1,2.31,1.67,3.42,.9,8.58-5.97,18.17-10.2,27.49-14.85,9.6-4.79,19.02-9.92,28.25-15.38,5.2-3.07,10.33-6.25,15.4-9.53l-2.52-4.32c-14.8,9.9-30.5,18.38-45.28,28.33-4.21,2.84-8.33,5.81-12.34,8.92-2.22,1.72,.71,5.57,3.03,3.93,14.99-10.61,31.05-19.63,46.85-28.94l13.91-8.19-3.67-2.82c-1.3,3.12-4.07,5.49-6.59,7.6-2.96,2.48-6.01,4.87-9.11,7.18-6.41,4.76-13.07,9.19-19.93,13.29-3.92,2.34-7.9,4.58-11.93,6.72l3.03,3.93c12.91-11.24,29.85-16.14,43.96-25.54l-3.42-3.42c-3.83,6.01-10.36,10.21-16.08,14.24-6.47,4.56-13.16,8.82-19.9,12.99-2.75,1.7-.33,5.79,2.52,4.32,15.07-7.76,29.51-16.72,43.16-26.77l-3.03-3.93c-9.19,10.53-22.48,16.22-32.02,26.38-1.95,2.08,.51,5.29,3.03,3.93l31.77-17.16-2.52-4.32-26.75,19.7c-2.55,1.88-.39,5.84,2.52,4.32l25.76-13.47-3.03-3.93-11.55,9.7c-1.88,1.58,.13,5.02,2.43,4.18l14.76-5.4-2.82-3.67c-1.33,2.15-3.02,4.09-5.06,5.6s-1.25,4.33,1.26,4.66c1.58,.21,3.02-.16,4.46-.79l-3.03-3.93-2.54,3.03c-.87,1.03-1.01,2.52,0,3.54,.89,.89,2.66,1.04,3.54,0l2.54-3.03c1.88-2.25-.42-5.06-3.03-3.93-.6,.26-1.31,.19-1.94,.11l1.26,4.66c2.75-2.05,5.05-4.47,6.85-7.4,1.09-1.76-.74-4.43-2.82-3.67l-14.76,5.4,2.43,4.18,11.55-9.7c2.26-1.9-.62-5.19-3.03-3.93l-25.76,13.47,2.52,4.32,26.75-19.7c1.09-.8,1.63-2.17,.9-3.42s-2.23-1.54-3.42-.9l-31.77,17.16,3.03,3.93c9.53-10.15,22.82-15.85,32.02-26.38,.82-.94,1-2.27,.2-3.28-.71-.89-2.21-1.39-3.23-.64-13.65,10.06-28.09,19.01-43.16,26.77l2.52,4.32c7-4.34,13.96-8.76,20.67-13.54,6.21-4.41,12.94-8.95,17.1-15.48,1.32-2.07-1.34-4.81-3.42-3.42-14.51,9.65-31.69,14.75-44.98,26.32-2.21,1.93,.61,5.21,3.03,3.93,14.81-7.88,28.95-17.08,41.83-27.84,3.36-2.81,6.33-5.85,8.03-9.94,.87-2.1-1.95-3.84-3.67-2.82-16.01,9.43-32.21,18.59-47.9,28.54-4.35,2.76-8.65,5.61-12.86,8.59l3.03,3.93c13.79-10.7,29.08-19.23,43.91-28.36,4.28-2.63,8.52-5.32,12.7-8.11,2.66-1.78,.2-6.08-2.52-4.32-9.01,5.82-18.22,11.33-27.61,16.5s-18.87,9.69-28.35,14.46c-5.23,2.63-10.37,5.45-15.18,8.8l2.52,4.32c16.24-11.31,32.89-21.92,49.77-32.23,4.35-2.65,8.65-5.51,12.12-9.27,2-2.17-.49-5.1-3.03-3.93-15.23,7.03-30.48,14.07-45.09,22.32-4.18,2.36-8.3,4.82-12.35,7.4l2.52,4.32c6.74-4.49,13.66-8.7,20.76-12.61,6.91-3.81,14.03-7.13,21.07-10.67,3.95-1.99,7.8-4.16,11.37-6.79,2.56-1.89,.41-5.77-2.52-4.32l-52.25,25.78,2.52,4.32,40.98-24.3c2.77-1.64,.31-5.86-2.52-4.32-11.7,6.36-23.74,12.1-36.08,17.13l1.93,4.57,26.03-17.56c1.03-.69,1.54-1.94,1.02-3.12-.47-1.06-1.76-1.88-2.95-1.45-8.93,3.23-17.41,7.56-25.21,12.97l3.67,2.82c1.05-2.85,3.74-4.85,6.12-6.64,2.94-2.21,5.86-4.39,7.89-7.52,.6-.92,.37-2.27-.39-3.03-.83-.83-2.01-.87-3.03-.39-7.26,3.41-14.16,7.53-20.59,12.32-1.08,.81-1.63,2.16-.9,3.42,.65,1.12,2.29,1.64,3.42,.9,5.88-3.87,11.68-7.87,15.93-13.57,1.34-1.81-.87-4.23-2.82-3.67-7.48,2.15-14.35,5.9-20.25,10.97-1.02,.88-.9,2.63,0,3.54,1.02,1.02,2.5,.87,3.54,0,4.18-3.51,8.08-7.32,11.7-11.41,.82-.93,1-2.27,.2-3.28-.71-.89-2.2-1.39-3.23-.64l-10.73,7.84,3.03,3.93c2.24-2.14,4.23-4.5,6.01-7.03,.78-1.1,.2-2.78-.9-3.42-1.25-.73-2.64-.21-3.42,.9h0Z"/><path class="b" d="M85.33,119.31c-.23-6.47-.3-12.94-.19-19.42,.06-3.32,.16-6.64,.31-9.95,.04-.83,.08-1.66,.12-2.49,.02-.37-.1-1.08,.08-1.37-.18,.29-.17,.07,.31,.11,.87,.07,1.86-.14,2.72-.2,12.94-.93,25.93-1.32,38.9-1.17,1.82,.02,3.64,.05,5.45,.1,1.64,.04,3.8,.48,5.29-.34,1.84-1.02,1.61-2.94,1.46-4.73l-.44-5.42c-.11-1.35-1.07-2.5-2.5-2.5-1.27,0-2.61,1.15-2.5,2.5l.3,3.77,.15,1.89,.08,.94c-.02,.61,.05,.63,.19,.05l.9-.9-.34,.15,1.26-.34c-3,.12-6.06-.13-9.07-.17s-6.12-.04-9.18-.02c-6.03,.04-12.07,.21-18.09,.48-3.06,.14-6.11,.31-9.16,.51-1.4,.09-2.8,.19-4.21,.3s-2.97,.11-4.25,.82c-2.68,1.48-2.36,4.91-2.48,7.53-.14,3.07-.24,6.14-.3,9.21-.14,6.89-.08,13.78,.17,20.66,.12,3.21,5.12,3.22,5,0h0Z"/><path class="b" d="M45.48,138.15c-5.34,6.27-10.4,12.78-15.19,19.48-.78,1.1-.19,2.78,.9,3.42,1.26,.73,2.63,.21,3.42-.9,4.54-6.36,9.34-12.52,14.4-18.47,.87-1.03,1.01-2.53,0-3.54-.9-.9-2.66-1.03-3.54,0h0Z"/><path class="b" d="M61.68,140.89c-.81,4.05-2.58,7.69-4.73,11.19-1.09,1.78-2.26,3.51-3.43,5.23-.57,.84-1.14,1.68-1.7,2.52-.49,.74-1.19,2-1.58,2.49l1.1-.64-.16,.05,2.43,.64-.07-.08,.64,2.43,.02-.1-1.75,1.75h.08c1.34-.21,2.07-1.9,1.75-3.09-.39-1.43-1.74-1.95-3.08-1.75h-.08c-.79,.13-1.59,1-1.75,1.76-.21,1.04,0,1.81,.69,2.61,.55,.64,1.64,.89,2.43,.64,1.34-.43,1.87-1.51,2.59-2.61,.65-1.01,1.33-2,2-2.99,1.31-1.94,2.64-3.87,3.88-5.85,2.48-3.97,4.61-8.25,5.53-12.87,.26-1.32-.38-2.7-1.75-3.08-1.23-.34-2.81,.42-3.08,1.75h0Z"/><path class="b" d="M78.04,140.49c-.14,4.03-2.93,7.69-4.66,11.19-2,4.05-3.72,8.23-5.19,12.5-.44,1.28,.5,2.73,1.75,3.08,1.37,.38,2.64-.46,3.08-1.75,1.47-4.3,3.23-8.47,5.29-12.52s4.57-7.86,4.73-12.5c.11-3.22-4.89-3.21-5,0h0Z"/><path class="b" d="M115.52,173.72c6.66,3.87,13.5,7.42,20.5,10.64,2.6,1.2,4.89-1.7,3.03-3.93l-.27-.32c-.87-1.04-2.64-.89-3.54,0-1.03,1.03-.87,2.5,0,3.54l.27,.32,3.03-3.93c-7-3.22-13.84-6.77-20.5-10.64-2.79-1.62-5.31,2.7-2.52,4.32h0Z"/><path class="b" d="M138.79,173.16c4.86,5.36,10.36,10.1,16.33,14.18,1.08,.74,2.82,.24,3.42-.9,.67-1.27,.26-2.63-.9-3.42-5.56-3.8-10.69-8.28-15.32-13.39-.88-.97-2.65-.96-3.54,0-.95,1.04-.94,2.5,0,3.54h0Z"/><path class="b" d="M158.04,174.52c2.72,3.63,7.06,5.54,10.91,7.74l6.13,3.49c1.03,.58,2.04,1.24,3.1,1.76,1.48,.73,2.8,.65,4.09-.4,1.05-.85,.89-2.65,0-3.54-1.03-1.03-2.49-.86-3.54,0l-.18,.15,1.1-.64c1.02,.2,1.22,.15,.58-.15l-.7-.4-1.4-.8-2.45-1.4-5.08-2.89c-1.61-.92-3.24-1.82-4.84-2.76-1.22-.72-2.54-1.52-3.41-2.68-.81-1.08-2.16-1.63-3.42-.9-1.06,.62-1.71,2.33-.9,3.42h0Z"/><path class="b" d="M183.15,176.97c.11,.08,.22,.17,.33,.25,.25,.19-.4-.32-.04-.03,.22,.17,.44,.35,.65,.52,.43,.35,.86,.71,1.28,1.08,.82,.72,1.6,1.47,2.37,2.25s1.49,1.58,2.19,2.42c.36,.42,.68,.89,1.05,1.3-.09-.1-.28-.36-.08-.11,.08,.11,.17,.22,.25,.33,.18,.25,.36,.49,.54,.74,.39,.54,.83,.97,1.49,1.15,.6,.16,1.4,.09,1.93-.25,1.05-.68,1.71-2.28,.9-3.42-2.91-4.05-6.36-7.56-10.34-10.55-.48-.36-1.37-.4-1.93-.25s-1.21,.61-1.49,1.15c-.31,.58-.46,1.28-.25,1.93s.6,1.08,1.15,1.49h0Z"/></svg>