<?xml version="1.0" encoding="UTF-8"?><svg id="a" xmlns="http://www.w3.org/2000/svg" viewBox="0 0 234.85 224.52"><defs><style>.b{fill:#231f20;}</style></defs><path class="b" d="M113.45,58.5v25.9c0,2.95,3.96,3.22,4.91,.66l.77-2.06c.47-1.27-.53-2.74-1.75-3.08-1.4-.38-2.6,.48-3.08,1.75l-.77,2.06,4.91,.66v-25.9c0-3.22-5-3.22-5,0h0Z"/><path class="b" d="M118.61,127.51c-.33,8.52,.31,17.03,1.8,25.43l4.57-1.93-.49-.69c-.78-1.1-2.18-1.62-3.42-.9-1.09,.64-1.68,2.31-.9,3.42l.49,.69c1.66,2.34,5.07,.91,4.57-1.93-1.41-7.95-1.93-16.03-1.62-24.1,.12-3.22-4.88-3.21-5,0h0Z"/><path class="b" d="M60.53,58.69l36.49-15.29c2.8-1.17,5.6-2.58,8.51-3.49s5.64,.19,8.44,.89c6.04,1.51,12.1,2.94,18.18,4.3s12.39,2.67,18.61,3.89,12.68,2.19,18.97,3.5c.79,.16,2.04,.28,2.6,.96,.62,.76,.99,2.52,1.3,3.53,.85,2.82,1.33,5.73,1.65,8.66,.68,6.41,1.1,12.85,1.63,19.27,.03,.33,.06,.65,.08,.98,.03,.3,.05,.59,.07,.89,.22-.39,.3-.51,.23-.36-.41,.37-1.1,.61-1.61,.82-1.63,.68-3.28,1.33-4.91,2.02-3.04,1.3-6.04,2.7-8.98,4.21-5.46,2.79-10.73,5.97-15.63,9.65-1.08,.81-1.63,2.16-.9,3.42,.62,1.06,2.33,1.71,3.42,.9,4.56-3.42,9.43-6.4,14.47-9.05,2.77-1.45,5.59-2.81,8.45-4.07,1.37-.6,2.74-1.18,4.12-1.74,1.47-.6,3.06-1.09,4.36-2.03,3.01-2.18,1.77-6.38,1.5-9.55l-.83-10.04c-.54-6.54-1.08-13.19-3.76-19.26-1.23-2.79-3.98-3.65-6.76-4.16-3.33-.61-6.68-1.17-10.01-1.79-6.67-1.23-13.32-2.56-19.96-3.97s-12.71-2.79-19.03-4.32c-3.18-.77-6.35-1.59-9.53-2.37s-6.22-.57-9.35,.72c-14.41,5.96-28.77,12.05-43.15,18.08-1.24,.52-2.14,1.65-1.75,3.08,.32,1.17,1.82,2.27,3.08,1.75h0Z"/><path class="b" d="M113.4,88c16.73,9.6,33.9,18.44,51.76,25.76,5.03,2.06,10.11,3.99,15.24,5.78l-1.1-.64c3.48,3.54,5.73,7.99,7.41,12.61,.85,2.34,1.58,4.72,2.31,7.09,.34,1.12,.69,2.24,1.04,3.35,.32,1.01,.6,1.57,.47,2.51-.15,1.13-.82,1.43-1.73,2.17-1.05,.85-2.16,1.64-3.3,2.38-2.29,1.5-4.69,2.82-7.16,4.01-4.87,2.36-9.94,4.25-14.92,6.36-5.58,2.36-11.24,4.51-16.81,6.88-5.44,2.32-10.87,4.7-16.41,6.78-5.08,1.91-10.7,3.86-16.07,1.82-2.78-1.06-5.47-2.35-8.24-3.45s-5.51-2.13-8.3-3.11c-12.68-4.48-25.72-7.81-38.86-10.59l1.1,.64c-5.72-5.86-4.63-14.94-5.04-22.44-.11-2.03-.34-3.72,.37-5.68,.14-.39,.31-.74,.52-1.11,.07-.13,.45-.48,.14-.23-.41,.34,.4-.18,.5-.24,1.12-.7,2.25-1.37,3.38-2.03,4.61-2.67,9.36-5.08,14.15-7.41,5.33-2.59,10.7-5.1,15.98-7.78,2.87-1.46,.34-5.77-2.52-4.32-10.3,5.23-20.96,9.79-30.93,15.67-1.19,.7-2.44,1.38-3.57,2.18-1.02,.72-1.6,1.84-2.08,2.97-.96,2.29-1.18,4.48-1,6.92,.32,4.47,.14,8.96,.7,13.42,.59,4.75,2.01,9.3,5.24,12.94,1.09,1.22,2.26,1.43,3.8,1.76,1.45,.31,2.89,.63,4.33,.96,2.87,.65,5.73,1.33,8.58,2.05,11.15,2.81,22.16,6.23,32.84,10.52,2.66,1.07,5.27,2.43,7.99,3.33s5.55,1.05,8.3,.75c5.67-.61,10.99-3.01,16.21-5.16,10.63-4.37,21.2-8.87,31.84-13.21,4.96-2.03,9.97-4.02,14.68-6.61,2.23-1.23,4.38-2.59,6.41-4.12,2.19-1.65,4.32-3.14,4.76-6.02,.17-1.13,.28-2.27-.04-3.37-.36-1.24-.79-2.47-1.17-3.7-.69-2.25-1.37-4.51-2.14-6.73-1.62-4.73-3.61-9.38-6.68-13.37-.74-.97-1.51-1.95-2.4-2.79-1.09-1.03-2.92-1.37-4.31-1.87-2.77-1-5.53-2.04-8.28-3.13-5.3-2.09-10.53-4.33-15.71-6.7-10.6-4.84-20.97-10.18-31.15-15.84-2.54-1.41-5.07-2.84-7.59-4.29-2.8-1.6-5.32,2.71-2.52,4.32h0Z"/><path class="b" d="M122.41,121.94c-12.94-3.83-24.68-10.27-36.88-15.87-6.25-2.87-12.62-5.38-19.2-7.39-2.27-.69-5.91-1.52-6.86-3.82-.42-1.01-.38-1.8-.36-3,.04-1.9,.14-3.79,.24-5.69,.48-8.83,1.45-17.62,2.89-26.34,.22-1.33-.35-2.69-1.75-3.08-1.2-.33-2.85,.41-3.08,1.75-1.35,8.19-2.34,16.44-2.89,24.72-.23,3.46-.73,7.15-.36,10.62s2.15,5.96,5.14,7.52c3.25,1.7,6.96,2.46,10.41,3.65s6.76,2.49,10.06,3.93c6.26,2.74,12.34,5.85,18.5,8.79,7.39,3.52,14.94,6.71,22.8,9.04,3.09,.92,4.41-3.91,1.33-4.82h0Z"/><path class="b" d="M21.4,65.48c-7.81-5.8-13.33-14.51-15.5-23.97-.97-4.23-1.99-9.74,1.15-13.3,2.58-2.93,6.94-4.32,10.76-3.6,5.36,1.02,9.7,4.8,12.73,9.19,.96,1.39,3.47,1.84,4.32,0,1.95-4.21,4.08-8.48,7.39-11.81,1.47-1.48,3.12-2.71,5-3.63,.88-.43,1.81-.75,2.76-.98,.59-.14,1.81-.54,2.39-.33,.56,.19,.98,1.44,1.21,1.9,.52,1.03,.98,2.08,1.36,3.17,.77,2.17,1.32,4.43,1.67,6.71,.72,4.67,.52,9.53-.12,14.19-.79,5.76-2.27,11.4-3.72,17.02-.81,3.12,4.01,4.45,4.82,1.33,2.88-11.14,5.66-22.54,3.81-34.09-.42-2.63-1.1-5.23-2.09-7.71-.9-2.27-1.96-5.28-4.12-6.67s-5.19-.81-7.5-.09c-2.54,.79-4.82,2.11-6.9,3.75-4.78,3.78-7.76,9.26-10.28,14.7h4.32c-3.37-4.89-7.92-9.11-13.67-10.96-5.15-1.66-11.09-.87-15.46,2.4-2.23,1.67-3.95,3.81-4.91,6.44-1.16,3.16-.88,6.62-.43,9.88,.78,5.66,2.69,11.16,5.5,16.14,3.24,5.76,7.69,10.7,12.99,14.63,1.09,.8,2.79,.18,3.42-.9,.74-1.27,.19-2.61-.9-3.42h0Z"/><path class="b" d="M18.57,69.28c2.31,.38,4.77,.47,6.99-.39,2.56-.98,4.36-2.93,5.05-5.6,1.35-5.24,.24-11.09-2.5-15.69-.69-1.16-2.25-1.58-3.42-.9s-1.59,2.26-.9,3.42c1.95,3.28,2.82,7.29,2.18,10.94-.09,.5-.19,1-.36,1.47-.15,.41,.19-.28-.17,.37-.03,.06-.39,.59-.24,.4s-.29,.29-.28,.28c-.28,.31,.06-.01-.14,.12-.16,.11-.34,.2-.5,.31-.36,.23,.07,0-.16,.09-.38,.15-.77,.26-1.17,.34-.15,.03-.56,.1-.2,.05-.21,.03-.42,.04-.63,.05-.42,.02-.85,.02-1.27,0-.21-.01-.42-.03-.63-.05-.54-.04,.25,.05-.32-.05-1.33-.22-2.69,.35-3.08,1.75-.33,1.2,.41,2.85,1.75,3.08h0Z"/><path class="b" d="M54.26,57.71c-.2,.15-.4,.3-.61,.42-.06,.03-.68,.34-.29,.18-.46,.19-.96,.29-1.44,.39-.55,.11,.18,.01-.34,.04-.25,.01-.51,.04-.76,.05-.52,.02-1.05,.02-1.57,0-1.18-.03-1.72-.1-2.91-.44-.29-.11-.35-.13-.18-.05l-.25-.12c-.21-.11-.41-.22-.61-.35-.09-.06-.56-.44-.24-.16-.2-.18-.4-.36-.59-.56-.06-.06-.48-.54-.33-.37s-.23-.34-.28-.42c-.26-.4-.48-.81-.68-1.25-.07-.16-.07-.14,.02,.05-.04-.11-.09-.22-.12-.33-.08-.22-.15-.45-.22-.68-.14-.49-.25-.98-.33-1.48-.12-.84-.13-2.22-.08-3.28,.06-1.27,.21-2.54,.35-3.81s-1.26-2.56-2.5-2.5c-1.48,.07-2.34,1.1-2.5,2.5-.61,5.31-.81,11.45,3.46,15.42,2.17,2.02,4.94,2.72,7.84,2.82,2.61,.09,5.54-.12,7.69-1.77,1.04-.79,1.69-2.19,.9-3.42-.66-1.02-2.31-1.75-3.42-.9h0Z"/><path class="b" d="M27,54.31c1.17,1,2.37,2.04,3.75,2.74,1.66,.84,3.44,1.23,5.29,.94,3.06-.47,5.15-3.19,5.92-6.03,.34-1.26-.43-2.77-1.75-3.08s-2.71,.4-3.08,1.75c-.06,.23-.13,.45-.21,.67-.08,.21-.26,.37,.04-.08-.06,.08-.09,.19-.14,.29-.11,.21-.22,.42-.35,.62-.06,.09-.12,.17-.18,.26-.17,.25,.36-.4,.05-.08-.16,.17-.33,.32-.49,.49-.21,.22,.4-.26,.14-.11-.11,.07-.21,.14-.32,.21-.07,.04-.22,.08-.27,.14,.12-.14,.5-.18,.08-.04-.12,.04-.23,.07-.35,.1-.06,.01-.12,.03-.18,.04-.19,.03-.12,.02,.22-.03-.07-.06-.61,0-.73,0-.57-.02,.34,.09,.03,0-.12-.03-.24-.05-.36-.08-.04,0-.79-.25-.79-.25,.29,.13,.34,.15,.18,.07-.06-.03-.11-.05-.17-.08-.11-.06-.23-.11-.34-.18-.5-.28-.97-.6-1.43-.94-.29-.21,.46,.37-.02-.02-.1-.08-.2-.16-.3-.24-.25-.2-.49-.41-.73-.62-.99-.85-2.57-1.05-3.54,0-.86,.93-1.06,2.63,0,3.54h0Z"/><path class="b" d="M60.65,21.06c.08-1.51,1.14-2.84,2.09-3.95,1.12-1.32,2.32-2.58,3.62-3.72,2.51-2.2,5.57-3.92,8.91-4.41,3.05-.44,6.3,.25,8.56,2.43,2.12,2.05,2.9,4.78,2,7.61-1.22,3.84-4.73,6.5-7.76,8.9-1.06,.84-.88,2.66,0,3.54,1.05,1.05,2.47,.84,3.54,0,3.65-2.9,7.18-6.03,8.84-10.51,1.56-4.22,.64-8.71-2.22-12.13s-7.17-5.04-11.49-4.94c-4.69,.1-9,2.07-12.64,4.93-1.85,1.45-3.52,3.13-5.04,4.93-1.81,2.16-3.26,4.44-3.42,7.33-.18,3.22,4.82,3.2,5,0h0Z"/><path class="b" d="M77.96,32.26c.32-.16,.64-.31,.96-.45-.28,.12,.55-.2,.64-.23,.59-.21,1.18-.39,1.78-.53,.34-.09,.69-.16,1.04-.23,.17-.03,.35-.06,.52-.09,.31-.05,.35-.05,.13-.02,.61-.08,1.24-.13,1.86-.13,.18,0,.36,0,.53,.01-.22-.05-.18-.04,.12,.02,.28,.09,.34,.1,.16,.03-.14-.07-.12-.06,.07,.04,.23,.15,.21,.13-.06-.07,.09,.08,.18,.16,.26,.25,.18,.21,.16,.18-.05-.07,.07,.1,.13,.21,.19,.32-.31-.49-.06-.08,.01,.09,.06,.28,.06,.24,.01-.12,.01,.12,.02,.24,.02,.37-.02,.28,0,.24,.04-.12-.02,.12-.05,.24-.09,.35,.15-.33,.15-.34,0-.04-.15,.22-.17,.27-.07,.14,.1-.12,.07-.08-.11,.12-.11,.12-.22,.23-.34,.34-.23,.22-.48,.43-.72,.64-.46,.4-.93,.79-1.4,1.18-.97,.8-1.63,1.33-2.85,2.09s-1.98,1.14-3.19,1.49c-.25,.07-.5,.14-.76,.19-.17,.04-.34,.07-.51,.1,.24-.03,.2-.02-.11,.01-.35,.02-.69,.04-1.04,.04-.1,0-1.03-.09-.63-.03-1.29-.2-2.75,.33-3.08,1.75-.27,1.19,.36,2.86,1.75,3.08,2.98,.46,5.79-.1,8.5-1.41,2.38-1.16,4.45-2.9,6.45-4.6,.98-.83,2-1.7,2.57-2.89,.6-1.25,.74-2.65,.38-3.99-.78-2.92-3.44-4.37-6.33-4.29-3.21,.09-6.32,.96-9.19,2.37-1.18,.58-1.59,2.34-.9,3.42,.78,1.21,2.16,1.51,3.42,.9h0Z"/><path class="b" d="M74.14,43.99c.22-.13,.45-.25,.68-.36,.35-.17-.04-.04-.07,.02,.02-.05,.31-.11,.36-.13,.27-.09,.55-.17,.83-.24,.12-.03,.25-.05,.38-.08,.07-.01,.49-.07,.14-.03s.08,0,.14,0c.13,0,.26-.02,.38-.02,.26,0,.51,0,.77,0,.13,0,.26,.02,.38,.03,.36,0-.44-.08-.09-.02,.28,.05,.57,.1,.84,.17,.25,.06,.49,.14,.73,.22,.1,.04,.28,.07,.36,.14-.12-.1-.35-.17-.07-.02,.46,.24,.9,.51,1.32,.81,1.02,.72,2.09,1.48,3.36,1.65,.7,.09,1.29,.12,1.93-.25,.52-.3,1.01-.9,1.15-1.49,.27-1.17-.36-2.89-1.75-3.08-.16-.02-.32-.05-.47-.09-.06-.02-.46-.16-.15-.03,.34,.14-.2-.12-.22-.13-.11-.06-.23-.13-.34-.21-.5-.32-.97-.7-1.47-1.02-1.08-.69-2.34-1.2-3.61-1.45-2.76-.53-5.59-.14-8.03,1.28-1.13,.66-1.63,2.29-.9,3.42s2.21,1.6,3.42,.9h0Z"/><path class="b" d="M88.77,14.15c1.29-2.59,2.59-5.3,4.76-7.27,1.62-1.47,4.16-2.47,6.2-1.54,2.25,1.02,3.64,3.79,4.52,5.97,1.15,2.83,1.63,5.83,1.54,8.88-.1,3.22,4.9,3.21,5,0,.13-3.96-.66-7.87-2.25-11.5-1.46-3.33-3.68-6.65-7.17-8.05s-7.65-.25-10.6,2.07-4.7,5.66-6.32,8.93c-.6,1.21-.32,2.71,.9,3.42,1.11,.65,2.82,.32,3.42-.9h0Z"/><path class="b" d="M110.85,21.06c3.08-2.76,6.47-5.13,10.11-7.1,1.73-.93,3.54-1.9,5.42-2.48,1.06-.32,2.4-.75,2.95,.43,1.68,3.6,1.22,8.39,.32,12.12-1.05,4.35-2.97,8.37-4.99,12.33-1.46,2.86,2.85,5.39,4.32,2.52,3.84-7.52,7.34-15.64,6.13-24.27-.55-3.92-1.96-8.03-6.47-8.43-3.58-.31-7.38,1.92-10.4,3.56-3.94,2.14-7.59,4.78-10.93,7.77-2.4,2.15,1.14,5.68,3.54,3.54h0Z"/><path class="b" d="M96.99,34.57c.16,.26,.3,.52,.42,.8l-.25-.6c.18,.43,.3,.88,.36,1.35l-.09-.66c.06,.46,.06,.93,0,1.39l.09-.66c-.04,.25-.09,.5-.16,.75-.18,.62-.07,1.37,.25,1.93,.3,.52,.9,1.01,1.49,1.15,.64,.15,1.36,.11,1.93-.25s.96-.85,1.15-1.49c.16-.56,.24-1.15,.28-1.73s-.04-1.18-.12-1.78c-.05-.38-.14-.75-.28-1.12-.2-.55-.43-1.1-.75-1.59-.35-.54-.86-.98-1.49-1.15s-1.4-.09-1.93,.25-1,.86-1.15,1.49-.11,1.36,.25,1.93h0Z"/><path class="b" d="M111.21,38.05c.38-.34,.72-.71,1.03-1.11,.44-.56,.86-1.12,1.2-1.74,.18-.29,.28-.6,.3-.93,.07-.33,.06-.66-.04-1-.08-.33-.23-.61-.45-.85-.18-.27-.41-.49-.7-.64l-.6-.25c-.44-.12-.89-.12-1.33,0l-.6,.25c-.38,.22-.67,.52-.9,.9-.23,.43-.49,.84-.79,1.22l.39-.51c-.32,.41-.66,.78-1.04,1.13-.24,.23-.42,.49-.52,.8-.16,.3-.23,.62-.22,.96-.01,.34,.06,.67,.22,.96,.1,.31,.27,.58,.52,.8l.51,.39c.39,.23,.81,.34,1.26,.34l.66-.09c.42-.12,.79-.33,1.1-.64h0Z"/><path class="b" d="M136.63,21.38c1.55-3.13,5.05-5.49,8.28-6.62,1.69-.59,3.53-.89,5.23-.15s3.12,2.17,4.48,3.42c2.75,2.52,5.1,5.11,5.95,8.84,.67,2.96,.37,6.25-.9,9.01-1.7,3.73-5.62,5.73-7.22,9.48-.53,1.24-.37,2.68,.9,3.42,1.05,.62,2.89,.35,3.42-.9,.83-1.95,2.44-3.23,3.88-4.72s2.64-3.19,3.48-5.08c1.76-3.94,2.21-8.33,1.25-12.54-1.03-4.54-3.88-7.97-7.23-11.05-1.74-1.59-3.52-3.29-5.68-4.28-2.38-1.09-4.92-1.26-7.46-.68s-5.2,1.99-7.41,3.57-4.11,3.37-5.3,5.77c-1.42,2.87,2.89,5.41,4.32,2.52h0Z"/><path class="b" d="M144.59,30.15l.08-.04-.6,.25c.14-.05,.27-.09,.42-.11l-.66,.09c.15-.01,.29,0,.43,0l-.66-.09c.24,.04,.47,.11,.69,.2l-.6-.25c.39,.17,.73,.4,1.07,.66l-.51-.39c.52,.41,.98,.88,1.39,1.4l-.39-.51c.4,.53,.73,1.1,.99,1.7l-.25-.6c.21,.5,.37,1.02,.47,1.56,.11,.59,.65,1.2,1.15,1.49,.54,.31,1.33,.45,1.93,.25s1.19-.57,1.49-1.15c.33-.62,.39-1.24,.25-1.93-.36-1.84-1.31-3.56-2.58-4.93-.63-.68-1.38-1.32-2.2-1.75-.62-.33-1.23-.54-1.91-.64-.54-.07-.86-.06-1.43,.04-.39,.07-.73,.23-1.09,.4-.54,.25-1,.94-1.15,1.49-.16,.6-.09,1.4,.25,1.93s.86,1,1.49,1.15l.66,.09c.45,0,.87-.12,1.26-.34h0Z"/><path class="b" d="M148.72,30.62c.43-.53,.91-1,1.45-1.42l-.51,.39c.62-.48,1.29-.87,2.01-1.18l-.6,.25c.09-.04,.19-.08,.29-.11,.33-.08,.61-.23,.85-.45,.27-.18,.49-.41,.64-.7,.18-.29,.28-.6,.3-.93,.07-.33,.06-.66-.04-1-.2-.6-.57-1.19-1.15-1.49s-1.31-.49-1.93-.25c-.93,.36-1.84,.77-2.65,1.36s-1.57,1.22-2.2,1.99c-.24,.23-.42,.49-.52,.8-.16,.3-.23,.62-.22,.96,0,.61,.27,1.35,.73,1.77s1.1,.76,1.77,.73c.62-.03,1.36-.23,1.77-.73h0Z"/><path class="b" d="M158.85,15.32c1.99-2.37,4.03-4.87,7.34-4.99,3.95-.13,8.02-.22,11.96,0,2.91,.16,5.62,3.04,6.93,5.48,1.59,2.99,.3,6.27-1.44,8.89-1.89,2.84-4.65,4.99-8.06,5.5-1.34,.2-2.07,1.89-1.75,3.08,.39,1.43,1.73,1.95,3.08,1.75,4.16-.62,7.67-3.3,10.17-6.57,2.7-3.53,4.6-8.18,3.36-12.64-1.07-3.85-4.51-7.75-8.11-9.48-2.28-1.09-4.71-1.03-7.18-1.03s-4.88,0-7.32,0c-2.6,0-5.07,.21-7.34,1.6-2.04,1.25-3.65,3.05-5.17,4.87-.87,1.03-1.01,2.52,0,3.54,.89,.89,2.66,1.04,3.54,0h0Z"/><path class="b" d="M180.46,33.82c3.18,.32,6.27,.36,9.25,1.42,.89,.32,1.96,.95,2.53,1.65,.9,1.12,1.33,2.7,1.72,4.05,.13,.46,0,.49-.43,.78-.61,.41-1.33,.69-2.03,.93-1.54,.51-3.12,.75-4.74,.78-3.7,.05-7.29-1-10.77-2.17-1.28-.43-2.73,.5-3.08,1.75-.38,1.37,.46,2.64,1.75,3.08,6.73,2.26,14.35,3.72,20.94,.21,1.61-.85,2.95-2.16,3.27-4.02s-.35-3.67-1.03-5.36c-1.3-3.23-3.53-5.33-6.8-6.49s-7.09-1.25-10.58-1.6c-1.35-.14-2.5,1.25-2.5,2.5,0,1.47,1.15,2.36,2.5,2.5h0Z"/><path class="b" d="M172.06,41.4c1.74,4.98,2.34,9.75,1.88,15.03-.11,1.31,1.23,2.56,2.5,2.5,1.45-.07,2.38-1.1,2.5-2.5,.48-5.51-.23-11.14-2.06-16.36-.43-1.23-1.73-2.18-3.08-1.75-1.22,.39-2.21,1.75-1.75,3.08h0Z"/><path class="b" d="M169.72,22.2c.81,.27,1.61,.57,2.4,.9l-.6-.25c1.58,.67,3.1,1.45,4.56,2.35,1.12,.69,2.8,.28,3.42-.9s.29-2.69-.9-3.42c-2.37-1.45-4.92-2.62-7.56-3.5-1.24-.42-2.79,.48-3.08,1.75-.31,1.38,.42,2.63,1.75,3.08h0Z"/><path class="b" d="M175.19,21.96c.93-.75,1.78-1.59,2.53-2.52,.24-.23,.42-.49,.52-.8,.16-.3,.23-.62,.22-.96,.01-.34-.06-.67-.22-.96-.1-.31-.27-.58-.52-.8-.48-.44-1.1-.76-1.77-.73l-.66,.09c-.42,.12-.79,.33-1.1,.64-.75,.93-1.6,1.78-2.53,2.52-.24,.23-.42,.49-.52,.8-.16,.3-.23,.62-.22,.96-.01,.34,.06,.67,.22,.96,.1,.31,.27,.58,.52,.8,.48,.44,1.1,.76,1.77,.73l.66-.09c.42-.12,.79-.33,1.1-.64h0Z"/><path class="b" d="M190.11,16.33c1.1-1.51,2.81-3.08,4.46-4.11,.93-.57,1.89-1.1,2.86-1.41,.55-.18,1.05-.31,1.63-.24-.42-.05,.33,.11,.35,.12-.33-.11,.31,.16,.35,.18,.06,.04,.61,.44,.35,.22,.2,.17,.38,.37,.57,.55,.21,.21,.46,.61,.72,1.13,.47,.93,.75,2.15,.99,3.25,.56,2.58,.85,5.19,.95,7.83,.05,1.35,1.12,2.5,2.5,2.5s2.55-1.14,2.5-2.5c-.12-3.37-.52-6.79-1.33-10.07-.74-3-2.26-6.07-5.18-7.47-3.22-1.55-6.65-.28-9.53,1.45-2.59,1.55-4.73,3.62-6.5,6.05-.8,1.09-.19,2.79,.9,3.42,1.26,.74,2.62,.2,3.42-.9h0Z"/><path class="b" d="M208.05,26.56c4.83-4.14,12.27-10.1,18.66-5.32,2.17,1.62,3.52,4.36,3.07,7.03-.56,3.33-4.06,4.16-6.81,5.26-4.35,1.74-8.86,3.36-13.57,3.7-1.35,.1-2.5,1.08-2.5,2.5,0,1.28,1.15,2.6,2.5,2.5,5.19-.37,10.09-1.95,14.9-3.88,2.21-.89,4.68-1.64,6.63-3.05,1.73-1.25,2.95-3.01,3.53-5.08,1.15-4.1-.24-8.5-3.12-11.53-3.29-3.46-8.05-4.7-12.68-3.91-5.54,.95-10,4.69-14.14,8.23-1.03,.88-.9,2.63,0,3.54,1.02,1.02,2.51,.88,3.54,0h0Z"/><path class="b" d="M183.22,48.44c.07,.53-.25,1.21-.43,1.7-.31,.84-.71,1.65-1.01,2.49-.63,1.78-.73,3.76-.06,5.55s1.91,3.43,3.34,4.78,2.93,2.65,4.65,3.46c3.78,1.78,8.68,1.03,12.19-1.09s5.08-5.63,5.94-9.34c1.1-4.69,1.54-9.6,1.53-14.41,0-3.22-5.01-3.22-5,0,.01,4.49-.35,9.06-1.43,13.43-.4,1.62-.93,3.29-1.98,4.62-1.19,1.5-2.97,2.18-4.79,2.57-2.03,.44-3.76,.22-5.47-1-1.39-1-2.88-2.24-3.79-3.71s-.63-2.76,.02-4.35c.84-2.05,1.43-3.77,1.12-6.01-.19-1.34-1.89-2.07-3.08-1.75-1.44,.4-1.93,1.73-1.75,3.08h0Z"/><path class="b" d="M49.01,210.29c-4.85,.06-9.14-2.7-12.84-5.57s-7.25-6.19-10-10.02c-2.45-3.42-4.82-7.62-5.09-11.92-.11-1.76,.07-3.67,1.22-5.09s3.05-1.89,4.86-1.8c5.07,.26,8.48,5.05,11.21,8.77,.8,1.09,2.17,1.63,3.42,.9,1.07-.63,1.7-2.33,.9-3.42-3.33-4.54-7.1-9.53-12.9-10.88s-11.45,1.08-13.2,6.83c-1.61,5.3,.54,11.17,3.14,15.78,2.82,5.01,6.81,9.33,11.2,12.99,5.14,4.29,11.11,8.5,18.09,8.42,3.22-.04,3.22-5.04,0-5h0Z"/><path class="b" d="M38.84,185.97c.65,.53,1.44,1.3,1.84,1.85,.6,.82,1.42,1.35,2.49,1.19,1-.15,1.78-.82,2.08-1.79,.35-1.13,.42-2.34,.37-3.52-.02-.54-.06-1.07-.07-1.61s-.01-.9,.05-1.18c.17-.73,.57-1.18,1.13-1.61,.75-.57,1.79-1.2,2.54-1.51,.99-.42,1.8-.66,2.8-.48-.28-.05,.27,.1,.34,.12,.3,.08-.16-.13,.22,.08,.22,.11,.42,.24,.62,.37-.34-.22,.18,.16,.24,.22,.15,.14,.29,.29,.43,.44,.08,.09,.36,.43,.16,.16,.28,.37,.53,.77,.76,1.17s.45,.83,.65,1.25c.11,.23,.22,.47,.32,.7,.03,.07,.31,.72,.15,.33,.52,1.24,1.65,2.14,3.08,1.75,1.17-.32,2.27-1.82,1.75-3.08-.97-2.3-2-4.74-3.92-6.42-2.33-2.04-5.41-2.59-8.35-1.63-2.64,.86-5.76,2.63-7.1,5.16-.7,1.33-.89,2.83-.85,4.31,.02,.68,.08,1.37,.08,2.05,0,.74,0,.9-.21,1.61l4.57-.6c-.78-1.06-1.61-2.03-2.62-2.86s-2.51-1.02-3.54,0c-.88,.88-1.05,2.68,0,3.54h0Z"/><path class="b" d="M61.04,181.32l-.05-.28c.01,.16,.01,.15,0-.03-.03-.23-.04-.46-.05-.7-.01-.42,0-.84,.04-1.25,.02-.18,.02-.19,0-.03l.04-.28c.04-.23,.09-.46,.14-.69,.09-.41,.2-.83,.33-1.23,.51-1.63,1.19-3.06,2.16-4.6,.43-.69,.65-1.05,1.38-1.61-.2,.15,.06-.03,.12-.06,.18-.1,.36-.21,.55-.31,.11-.06,.52-.22,.21-.1,.2-.08,.4-.14,.59-.21,1.68-.56,3.43-.95,4.94-1.92,1.13-.73,1.6-2.22,.9-3.42-.66-1.13-2.28-1.63-3.42-.9-.9,.58-1.14,.62-2.17,.94s-2.02,.61-3,1.04c-1.99,.87-3.44,2.42-4.55,4.26-2.29,3.8-3.83,8.25-2.96,12.71,.25,1.29,1.86,2.14,3.08,1.75,1.37-.44,2.01-1.7,1.75-3.08h0Z"/><path class="b" d="M50.84,214.83c1.28-.54,2.37-1.49,3.34-2.47,.89-.89,1.77-1.81,2.56-2.79,2.05-2.54,3.39-5.51,2.69-8.82-.27-1.28-1.84-2.14-3.08-1.75-1.35,.44-2.04,1.7-1.75,3.08,.06,.31,.06,.09,0-.09,.04,.15,.03,.33,.03,.48,0,.13,0,.26,0,.39,0,.07-.06,.49,0,.15,.06-.39-.05,.23-.05,.25-.03,.13-.06,.25-.1,.38-.05,.19-.11,.61-.25,.75l.1-.23c-.04,.09-.08,.18-.13,.27-.06,.12-.12,.23-.18,.35-.13,.23-.26,.45-.4,.67s-.31,.53-.51,.72c.14-.13,.21-.26,.03-.04-.11,.12-.21,.25-.31,.38-.71,.83-1.47,1.63-2.25,2.4-.18,.18-.36,.35-.54,.52-.12,.11-.23,.21-.35,.31-.28,.26,.06,.02,.07-.04-.02,.11-.51,.35-.61,.42-.27,.16-.54,.3-.83,.42-.53,.23-1,.96-1.15,1.49-.16,.6-.09,1.4,.25,1.93,.81,1.26,2.13,1.45,3.42,.9h0Z"/><path class="b" d="M56.53,207.52c3.95,.79,7.98,1.47,11.99,.71,3.93-.74,7.19-3.28,9.21-6.69,2.19-3.7,2.77-8.04,2.97-12.26,.18-3.95,.16-7.93-.35-11.86-.6-4.54-1.87-8.97-4.34-12.86-1.72-2.71-6.05-.2-4.32,2.52,2.3,3.61,3.44,7.76,3.86,12s.47,9.06-.09,13.45c-.49,3.79-1.92,7.98-5.47,9.93s-8.29,.99-12.13,.23c-1.32-.26-2.7,.38-3.08,1.75-.34,1.23,.42,2.81,1.75,3.08h0Z"/><path class="b" d="M71.53,203.19c-1.02,1.96-1.93,3.99-2.72,6.06-.68,1.77-1.66,3.87-1.13,5.81,1.11,4.04,6.93,4.31,10.28,3.94,8.35-.91,14.77-6.29,20.54-11.96l-4.18-1.1c1.86,9.49,10.23,17.46,19.9,18.51,2.55,.28,5.29-.17,7.24-1.95,2.13-1.92,2.48-4.85,2.61-7.55,.29-5.79-.17-11.61-1.23-17.31-1.23-6.59-3.4-12.97-6.32-19-.59-1.21-2.32-1.54-3.42-.9-1.24,.73-1.49,2.2-.9,3.42,4.34,8.96,6.72,18.86,6.93,28.81,.05,2.29,.18,4.78-.26,7.04-.34,1.72-1.31,2.46-3.05,2.51-3.61,.09-7.42-1.71-10.14-3.98-3.39-2.83-5.71-6.6-6.56-10.94-.37-1.9-2.92-2.34-4.18-1.1-4.34,4.26-9.05,8.62-15.12,10.12-1.4,.35-2.81,.51-4.25,.47-.71-.02-1.41-.09-2.11-.25,0,0-1.21-.37-1.17-.41,.18-.15-.12,.74,.22,.31,.17-.21,.21-.72,.3-.99,.29-.88,.6-1.74,.94-2.6,.59-1.52,1.3-2.99,2.05-4.43,1.48-2.85-2.83-5.38-4.32-2.52h0Z"/><path class="b" d="M82.89,183.86c.03,.15,.02,.29,0,.44-.02,.21-.1,.17,.03-.05,.1-.17,.22-.34,.33-.5,.22-.33-.2,.24,.06-.07,.45-.55,.88-1.11,1.33-1.66,.9-1.09,1.82-2.17,2.77-3.23,1.89-2.11,3.87-4.15,5.92-6.1,.95-.9,.98-2.64,0-3.54s-2.52-.96-3.54,0c-2.3,2.18-4.5,4.47-6.59,6.85-1.02,1.16-2.01,2.34-2.97,3.55-1.37,1.71-2.68,3.31-2.18,5.64,.27,1.28,1.84,2.15,3.08,1.75,1.35-.44,2.04-1.7,1.75-3.08h0Z"/><path class="b" d="M93.37,184.55l5.43,8.27c.72,1.09,2.25,1.65,3.42,.9,1.09-.7,1.66-2.25,.9-3.42l-5.43-8.27c-.72-1.09-2.25-1.65-3.42-.9-1.09,.7-1.66,2.25-.9,3.42h0Z"/><path class="b" d="M100.49,188.57c.55-.18,1.09-.41,1.6-.68,.44-.23,.83-.52,1.22-.82s.75-.6,1.08-.95c.4-.43,.76-.9,1.08-1.39,.18-.29,.28-.6,.3-.93,.07-.33,.06-.66-.04-1-.08-.33-.23-.61-.45-.85-.18-.27-.41-.49-.7-.64-.58-.31-1.28-.46-1.93-.25s-1.13,.58-1.49,1.15c-.1,.15-.2,.3-.32,.45l.39-.51c-.35,.45-.75,.85-1.2,1.2l.51-.39c-.45,.35-.94,.63-1.46,.86l.6-.25c-.17,.07-.34,.13-.51,.19-.62,.2-1.16,.58-1.49,1.15-.18,.29-.28,.6-.3,.93-.07,.33-.06,.66,.04,1,.2,.6,.57,1.19,1.15,1.49s1.29,.46,1.93,.25h0Z"/><path class="b" d="M120.46,208.05c1.19,3.63,2.73,7.16,4.65,10.47,1,1.72,2.13,3.14,4.07,3.8,1.73,.58,3.71,.39,5.49,.26,3.67-.27,7.55-1.11,10.15-3.92s2.81-6.79,2.51-10.5c-.36-4.44-1.51-8.67-3.37-12.71-.56-1.23-2.34-1.53-3.42-.9-1.26,.74-1.46,2.19-.9,3.42,1.58,3.45,2.54,7.24,2.75,11.03,.09,1.57,.24,3.4-.35,4.9-.52,1.32-1.73,2.24-3.01,2.78-1.57,.67-3.32,.83-5.01,.93-1.09,.07-3.01,.47-3.87-.43-.61-.64-1.03-1.71-1.46-2.49-.47-.87-.92-1.76-1.34-2.65-.81-1.73-1.48-3.51-2.08-5.33-1-3.04-5.83-1.74-4.82,1.33h0Z"/><path class="b" d="M143.12,206.96c3.68,2.39,7.64,4.59,12.04,5.24s9.53,0,12.1-3.88c1.13-1.7,1.43-3.83,1.49-5.83s.08-4.07-.48-5.95c-.67-2.23-2.18-3.67-3.99-5.02-1.69-1.25-3.51-2.33-5.41-3.22-4.35-2.03-9.01-3.17-13.82-3.32-3.22-.1-3.21,4.9,0,5s6.56,.78,9.67,1.95c1.48,.56,2.89,1.27,4.25,2.07s2.96,1.66,3.95,2.88c.8,.99,.81,2.37,.84,3.59,.03,1.45,.09,2.93-.33,4.33-.83,2.76-4.87,2.85-7.21,2.55-3.89-.5-7.35-2.6-10.58-4.69-2.71-1.76-5.22,2.57-2.52,4.32h0Z"/><path class="b" d="M140.81,190.82c4.78-2.31,9.45-5.65,12.69-9.9,1.58-2.07,2.73-4.6,2.59-7.26-.15-2.87-1.5-5.37-3.34-7.51-.88-1.02-2.63-.91-3.54,0-1.01,1.01-.88,2.51,0,3.54,1.14,1.32,2.04,3.03,1.87,4.81-.16,1.62-1.26,3.18-2.38,4.41-2.91,3.21-6.54,5.72-10.43,7.6-1.22,.59-1.54,2.32-.9,3.42,.73,1.24,2.2,1.49,3.42,.9h0Z"/><path class="b" d="M133.73,178.48l4.19,.94c.65,.15,1.34,.09,1.93-.25,.52-.3,1.01-.9,1.15-1.49,.15-.64,.11-1.36-.25-1.93-.34-.53-.86-1.01-1.49-1.15l-4.19-.94c-.65-.15-1.34-.09-1.93,.25-.52,.3-1.01,.9-1.15,1.49-.15,.64-.11,1.36,.25,1.93,.34,.53,.86,1.01,1.49,1.15h0Z"/><path class="b" d="M182.5,157.79c2.74-.35,5.54-.07,8.04,1.15,.94,.46,2.16,1.05,2.67,2.03,.47,.89,0,1.89-.51,2.67-1.37,2.11-3.7,2.73-6.08,2.81-3.21,.1-6.43,.03-9.64,.04-1.23,0-2.31,.95-2.46,2.17-.13,1.1,.55,2.56,1.79,2.74,4.63,.67,9.11,2.07,13.22,4.31,1.87,1.02,3.76,2.13,5.24,3.69,.8,.85,2.58,3.34,1.73,4.54l.9-.9c-.97,.68-3.21,.47-4.38,.46-1.57-.01-3.14-.16-4.69-.43-3.35-.58-6.61-1.58-9.83-2.65l-1.33,4.82c5.96,1.22,11.44,4.54,15.11,9.43,.45,.6,.87,1.23,1.26,1.87,.13,.22,.94,1.97,1.05,1.99,.11,.02-.1-.98,.27-.59,0,0-.48,.26-.51,.28-.31,.15-.63,.28-.97,.38-.79,.25-1.61,.43-2.44,.48-3.62,.25-7.28-.61-10.76-1.5-2.18-.56-4.33-1.23-6.45-1.98-1.02-.36-2.04-.75-3.05-1.16-.45-.18-.89-.36-1.34-.55-.18-.08-.38-.19-.57-.25-.54-.17-.45-.6-.05,.38-.51-1.25-1.67-2.13-3.08-1.75-1.19,.33-2.26,1.82-1.75,3.08,.99,2.45,3.39,3.09,5.67,4s4.5,1.69,6.81,2.37c4.48,1.33,9.41,2.61,14.13,2.39,2.35-.11,4.84-.6,6.86-1.85,2.48-1.53,2.57-4.18,1.4-6.59-1.75-3.58-4.58-6.81-7.69-9.27-3.7-2.92-7.98-5.03-12.61-5.98-3.15-.64-4.4,3.8-1.33,4.82,3.75,1.25,7.53,2.36,11.46,2.9,2,.27,4.01,.43,6.02,.32,1.83-.1,4.39-.11,5.77-1.49s1.32-3.81,.95-5.62-1.42-3.59-2.66-5.03c-2.3-2.68-5.68-4.54-8.84-6.02-3.89-1.82-7.99-3.1-12.24-3.71l-.66,4.91c4.06-.01,8.3,.33,12.32-.29,3.77-.58,7.11-3.11,8.53-6.68,3.48-8.74-8.92-12.54-15.33-11.72-1.34,.17-2.5,1.03-2.5,2.5,0,1.22,1.15,2.67,2.5,2.5h0Z"/><path class="b" d="M162.83,186.97c-.44-.12-.74-.32-1.04-.72-.35-.46-.54-.97-.69-1.59-.41-1.67-.25-3.44-.45-5.15s-.88-3.36-.69-5.02,1.14-3.21,1.93-4.64c1.57-2.81-2.75-5.34-4.32-2.52-1.08,1.94-2.15,3.96-2.49,6.18-.38,2.49,.51,4.74,.67,7.19,.15,2.29,.12,4.59,1.03,6.74s2.49,3.76,4.72,4.36c3.11,.84,4.44-3.98,1.33-4.82h0Z"/></svg>